<svg version="1.1" xmlns="http://www.w3.org/2000/svg" xmlns:xlink="http://www.w3.org/1999/xlink" width="64.7106" height="110.01852" viewBox="0,0,64.7106,110.01852"><g transform="translate(-212.164,-124.44625)"><g data-paper-data="{&quot;isPaintingLayer&quot;:true}" fill-rule="nonzero" stroke="none" stroke-width="1" stroke-linecap="butt" stroke-linejoin="miter" stroke-miterlimit="10" stroke-dasharray="" stroke-dashoffset="0" style="mix-blend-mode: normal"><path d="M253.56096,124.5352c4.27027,0 7.73267,4.65565 7.73267,10.39487v89.14103c0,5.74043 -3.4633,10.39367 -7.73267,10.39367h-33.66519c-4.27027,0 -7.73177,-4.65323 -7.73177,-10.39367v-89.13982c0,-5.74285 3.4615,-10.39487 7.73177,-10.39487h33.66519z" data-paper-data="{&quot;origPos&quot;:null,&quot;origRot&quot;:0}" fill="#000000"/><path d="M219.89577,128.30339h33.66429c2.57186,0 4.66386,2.81103 4.66386,6.27075v89.13982c0,3.4561 -2.092,6.26954 -4.66386,6.26954h-33.66519c-2.57186,0 -4.66386,-2.81344 -4.66386,-6.26954v-89.13982c0,-3.45972 2.0929,-6.27075 4.66476,-6.27075z" data-paper-data="{&quot;origPos&quot;:null,&quot;origRot&quot;:0}" fill="#fffcfc"/><path d="M271.34265,124.44625c3.05494,0 5.53195,2.99301 5.53195,6.68261v57.30664c0,3.69038 -2.47765,6.68184 -5.53195,6.68184h-24.08407c-3.05494,0 -5.5313,-2.99145 -5.5313,-6.68184v-57.30587c0,-3.69194 2.47636,-6.68261 5.5313,-6.68261h24.08407z" data-paper-data="{&quot;origRot&quot;:0}" fill="#000000"/></g></g></svg>