<svg version="1.1" xmlns="http://www.w3.org/2000/svg" xmlns:xlink="http://www.w3.org/1999/xlink" width="109.92957" height="54.672"><g transform="translate(-184.53521,-152.16398)"><g data-paper-data="{&quot;isPaintingLayer&quot;:true}" fill="#000000" fill-rule="nonzero" stroke="none" stroke-width="1" stroke-linecap="butt" stroke-linejoin="miter" stroke-miterlimit="10" stroke-dasharray="" stroke-dashoffset="0" font-family="none" font-weight="none" font-size="none" text-anchor="none" style="mix-blend-mode: normal"><path d="M184.53521,160.76898c0,-4.752 4.65565,-8.605 10.39487,-8.605l89.14103,0c5.74043,0 10.39367,3.854 10.39367,8.605l0,37.463c0,4.752 -4.65323,8.604 -10.39367,8.604l-89.13982,0c-5.74285,0 -10.39487,-3.852 -10.39487,-8.604l0,-37.463z" data-paper-data="{&quot;origPos&quot;:null,&quot;origRot&quot;:0}"/><path d="M188.3034,198.23197l0,-37.462c0,-2.862 2.81103,-5.19 6.27075,-5.19l89.13982,0c3.4561,0 6.26954,2.328 6.26954,5.19v37.463c0,2.862 -2.81344,5.19 -6.26954,5.19l-89.13982,0c-3.45972,0 -6.27075,-2.329 -6.27075,-5.191z" data-paper-data="{&quot;origPos&quot;:null,&quot;origRot&quot;:0}"/></g></g></svg>