<?xml version="1.0" encoding="UTF-8" standalone="no"?>
<!-- Created with Inkscape (http://www.inkscape.org/) -->

<svg
   version="1.1"
   id="svg1"
   width="837.03027"
   height="651.96899"
   viewBox="0 0 837.03027 651.96899"
   sodipodi:docname="menu_splash.png"
   inkscape:export-filename="menu_splash_raw.svg"
   inkscape:export-xdpi="96"
   inkscape:export-ydpi="96"
   xmlns:inkscape="http://www.inkscape.org/namespaces/inkscape"
   xmlns:sodipodi="http://sodipodi.sourceforge.net/DTD/sodipodi-0.dtd"
   xmlns:xlink="http://www.w3.org/1999/xlink"
   xmlns="http://www.w3.org/2000/svg"
   xmlns:svg="http://www.w3.org/2000/svg">
  <defs
     id="defs1">
    <linearGradient
       id="swatch26"
       inkscape:swatch="solid">
      <stop
         style="stop-color:#ffffff;stop-opacity:1;"
         offset="0"
         id="stop26" />
    </linearGradient>
    <linearGradient
       id="swatch13"
       inkscape:swatch="solid">
      <stop
         style="stop-color:#000000;stop-opacity:1;"
         offset="0"
         id="stop13" />
    </linearGradient>
    <linearGradient
       id="swatch8"
       inkscape:swatch="solid">
      <stop
         style="stop-color:#000000;stop-opacity:1;"
         offset="0"
         id="stop8" />
    </linearGradient>
    <linearGradient
       id="swatch5"
       inkscape:swatch="solid">
      <stop
         style="stop-color:#000000;stop-opacity:1;"
         offset="0"
         id="stop5" />
    </linearGradient>
    <linearGradient
       id="swatch1"
       inkscape:swatch="solid">
      <stop
         style="stop-color:#000000;stop-opacity:1;"
         offset="0"
         id="stop1" />
    </linearGradient>
    <linearGradient
       inkscape:collect="always"
       xlink:href="#swatch1"
       id="linearGradient4"
       gradientUnits="userSpaceOnUse"
       gradientTransform="translate(-9.1379953,2.6108558)"
       x1="194.81647"
       y1="134.82718"
       x2="287.44147"
       y2="134.82718" />
    <linearGradient
       inkscape:collect="always"
       xlink:href="#swatch5"
       id="linearGradient7"
       gradientUnits="userSpaceOnUse"
       x1="51.314636"
       y1="290.76443"
       x2="172.39555"
       y2="290.76443"
       gradientTransform="translate(-24.80313,84.852814)" />
    <linearGradient
       inkscape:collect="always"
       xlink:href="#swatch8"
       id="linearGradient23"
       gradientUnits="userSpaceOnUse"
       gradientTransform="translate(-50.911688,53.522544)"
       x1="106.01088"
       y1="553.4649"
       x2="1596.5734"
       y2="553.4649" />
    <linearGradient
       inkscape:collect="always"
       xlink:href="#swatch13"
       id="linearGradient25"
       gradientUnits="userSpaceOnUse"
       gradientTransform="translate(56.1334,22.192274)"
       x1="185.7599"
       y1="647.45575"
       x2="1089.5724"
       y2="647.45575" />
  </defs>
  <sodipodi:namedview
     id="namedview1"
     pagecolor="#ffffff"
     bordercolor="#000000"
     borderopacity="0.25"
     inkscape:showpageshadow="2"
     inkscape:pageopacity="0.0"
     inkscape:pagecheckerboard="0"
     inkscape:deskcolor="#d1d1d1">
    <inkscape:page
       x="0"
       y="0"
       width="837.03027"
       height="651.96899"
       id="page2"
       margin="0"
       bleed="0" />
  </sodipodi:namedview>
  <g
     inkscape:groupmode="layer"
     inkscape:label="Image"
     id="g1"
     transform="translate(-24.253506,-47.564434)">
    <path
       d="m 86.055866,418.56004 q 9.518244,-27.22661 38.515684,-108.90642 5.53386,-15.71617 15.27346,-14.60939 7.74741,0.88542 7.74741,9.96095 0,2.21354 -0.22136,4.64844 -17.487,46.92716 -52.239659,140.78147 -4.648445,6.86199 -9.075535,6.86199 -4.648444,0 -9.075534,-6.86199 -15.71617,-41.836 -26.56254,-74.59647 -10.846371,-32.53911 -23.463577,-68.39854 -0.442709,-1.99219 -0.442709,-3.76303 0,-7.7474 8.411471,-8.63282 0.885418,-0.22136 1.549481,-0.22136 9.075535,0 13.28127,12.61721 11.953143,37.18755 36.302138,111.11996 z M 302.54057,381.81519 q 0,23.68493 -7.96876,41.39329 -7.96877,17.70836 -22.35681,27.00525 -14.83075,9.29689 -34.30995,9.29689 -18.81513,0 -33.64588,-9.51824 -14.83075,-9.29689 -23.02087,-26.56254 -7.96876,-17.26565 -8.19011,-40.06517 0,-3.98438 0,-11.73179 0,-23.24222 8.19011,-40.95058 7.96876,-17.92971 22.79952,-27.2266 14.60939,-9.51825 33.86723,-9.51825 19.25785,0 34.0886,9.29689 14.60939,9.29689 22.57816,27.22661 7.96876,17.70836 7.96876,41.17193 0,3.54168 0,10.18231 z m -21.02868,-10.40366 q 0,-28.55473 -11.51043,-44.04955 -11.51044,-15.27346 -32.09641,-15.27346 -20.36461,0 -31.87504,15.27346 -11.51044,15.49482 -11.73179,42.72142 0,3.98438 0,11.73179 0,27.89067 11.51043,43.60684 11.73179,15.93752 32.0964,15.93752 20.58597,0 31.87505,-15.0521 11.51044,-14.83076 11.73179,-42.94278 0,-3.98438 0,-11.95314 z m 102.26578,5.53386 q 7.96877,-16.15888 31.87505,-64.85687 10.18231,-18.59377 18.59378,-18.37242 0.88542,0 1.77084,0.22135 4.64844,1.10678 4.64844,6.64064 0,5.75522 -4.64844,15.93752 -14.38805,27.22661 -42.94278,81.67981 0,11.95315 0,47.59122 0,11.51044 -9.07553,11.51044 -9.07554,0 -9.07554,-11.51044 0,-15.71617 0,-47.59122 -9.07553,-18.15107 -36.30213,-72.60427 -7.96877,-16.82294 -7.96877,-24.79171 0,-5.97657 4.42709,-6.86199 10.18231,-2.43489 19.25785,20.36462 9.73959,20.80732 29.44014,62.64332 z m 165.13047,35.19537 q -15.49481,0 -61.75791,0 -3.54167,9.51824 -13.94533,38.51568 -2.65625,6.64064 -8.41147,6.86199 -1.77084,0 -3.76303,-0.66406 -6.19792,-1.99219 -6.19792,-7.52606 0,-2.21354 1.10677,-5.09115 17.92971,-47.14851 53.56779,-141.44553 2.65625,-6.64063 8.41147,-6.64063 5.97657,-0.22135 8.63283,6.64063 18.15106,47.14851 54.23185,141.44553 0.88542,2.4349 0.88542,4.20574 0,5.53386 -6.41928,7.7474 -8.63283,3.32032 -12.1745,-5.53386 -4.64845,-12.83856 -14.16669,-38.51568 z m -56.00269,-16.15888 q 12.61721,0 50.24747,0 -6.19792,-17.26565 -25.01306,-69.06261 -6.41928,17.26566 -25.23441,69.06261 z m 173.76327,61.3152 q -19.25784,0 -34.97401,-9.07554 -15.71617,-9.07553 -23.90629,-25.45577 -7.96876,-16.60158 -8.19012,-38.51568 0,-4.64844 0,-13.72398 0,-35.41672 16.38024,-54.89591 16.60158,-19.4792 46.48444,-19.4792 24.57035,0 37.40891,13.05991 12.83856,13.05992 16.82294,27.44796 2.87761,11.28908 -4.64844,14.16669 -7.74741,2.65625 -11.95314,-7.3047 -12.1745,-30.98963 -37.40891,-30.32556 -20.80733,0 -31.43234,14.60939 -10.84637,14.6094 -10.84637,42.27871 0,4.20574 0,12.61721 0,26.56254 12.83856,41.836 12.83856,15.49481 33.42453,15.49481 24.57035,-0.4427 32.76046,-13.05991 8.41147,-12.83856 6.41928,-31.65369 -11.73178,0 -35.41672,0 -11.73178,0 -11.73178,-8.85418 0,-9.07554 11.73178,-9.07554 35.41672,0 44.2709,0 8.85418,0 8.85418,17.92972 -0.66406,6.19792 -1.32812,13.28127 -0.66407,7.30469 -2.4349,14.60939 -3.32032,13.28127 -14.38805,23.68493 -11.06772,10.40367 -38.73703,10.40367 z m 164.02365,-73.93241 q -14.83075,0 -27.44796,0 -12.6172,0 -25.89847,0 0,18.81513 0,56.22405 18.37242,0.22135 73.04698,1.10677 8.63283,0.22135 8.63283,8.41147 -0.22136,8.19012 -8.63283,8.19012 -67.07041,0 -80.35168,0 -13.28127,0 -13.28127,-17.70836 0,-42.50007 0,-127.05749 0,-17.70836 13.28127,-17.70836 13.28127,0 78.35949,0 8.85418,0 8.85418,8.85418 0,8.85418 -8.85418,8.85418 -23.68493,0 -71.05479,0 0,13.28127 0,53.12508 13.28127,0 52.68237,-0.22135 10.40366,0 10.62502,9.07553 0.22135,8.85418 -9.96096,8.85418 z"
       id="text4"
       style="font-size:226.667px;line-height:0;font-family:'Roboto Round';-inkscape-font-specification:'Roboto Round';fill:#ffffff;stroke:url(#linearGradient7);stroke-width:4.516;paint-order:stroke fill markers"
       aria-label="VOYAGE" />
    <path
       d="m 299.0894,196.49531 c 0,5.90279 -2.50869,8.85418 -7.52606,8.85418 -4.86979,0 -11.21529,-5.90279 -19.03648,-17.70836 -14.46183,-22.13545 -36.007,-55.26484 -64.63552,-99.388171 V 196.49531 c -0.29514,5.90279 -3.3941,8.85418 -9.29689,8.85418 -5.90279,0 -8.85418,-2.95139 -8.85418,-8.85418 V 54.607075 c 0,-5.902787 2.4349,-9.296889 7.3047,-10.182307 0.44271,-0.14757 0.95921,-0.221355 1.54948,-0.221355 4.13195,0 8.04255,3.467887 11.73179,10.403662 15.49482,24.201425 38.73704,60.503565 69.72667,108.906415 V 54.607075 c 0,-6.788205 3.02518,-10.182307 9.07553,-10.182307 5.90279,0 8.85418,3.394102 8.85418,10.182307 0.29514,31.57991 0.66407,78.875985 1.10678,141.888235 z M 467.31882,129.8676 c 0,15.78996 -2.65625,29.58773 -7.96876,41.3933 -5.31251,11.80557 -12.76477,20.80732 -22.3568,27.00525 -9.88717,6.19792 -21.32382,9.29688 -34.30995,9.29688 -12.54342,0 -23.75871,-3.17275 -33.64588,-9.51824 -9.88717,-6.19793 -17.5608,-15.05211 -23.02087,-26.56254 -5.31251,-11.51043 -8.04255,-24.86549 -8.19012,-40.06516 V 119.6853 c 0,-15.49482 2.73004,-29.145012 8.19012,-40.950585 5.31251,-11.953143 12.91234,-21.028677 22.79951,-27.226603 9.7396,-6.345496 21.02868,-9.518244 33.86724,-9.518244 12.83856,0 24.20142,3.098963 34.08859,9.296889 9.7396,6.197926 17.26565,15.273461 22.57816,27.226604 5.31251,11.805573 7.96876,25.529549 7.96876,41.171939 z m -21.02867,-10.40366 c 0,-19.03648 -3.83681,-33.719665 -11.51044,-44.049542 -7.67362,-10.182307 -18.37242,-15.273461 -32.0964,-15.273461 -13.57641,0 -24.20142,5.091154 -31.87505,15.273461 -7.67362,10.329877 -11.58422,24.570351 -11.73179,42.721422 v 11.73178 c 0,18.59378 3.83681,33.12939 11.51044,43.60684 7.82119,10.62502 18.51999,15.93753 32.0964,15.93753 13.72398,0 24.349,-5.01737 31.87505,-15.05211 7.67362,-9.88717 11.58422,-24.20142 11.73179,-42.94277 z M 604.55862,60.583646 H 557.41011 V 193.39635 c 0,7.96876 -2.95139,11.95314 -8.85418,11.95314 -5.90279,0 -8.85418,-3.98438 -8.85418,-11.95314 V 60.583646 h -47.36986 c -7.82119,0 -11.73179,-2.951393 -11.73179,-8.85418 0,-5.902787 3.9106,-8.85418 11.73179,-8.85418 h 112.22673 c 7.96876,0 11.95314,2.951393 11.95314,8.85418 0,5.902787 -3.98438,8.85418 -11.95314,8.85418 z m 103.59392,70.833444 h -27.44796 -25.89847 v 56.22404 c 12.24828,0.14757 36.59727,0.51649 73.04698,1.10677 5.75522,0.14757 8.63283,2.9514 8.63283,8.41147 -0.14757,5.46008 -3.02518,8.19012 -8.63283,8.19012 h -80.35168 c -8.85418,0 -13.28127,-5.90279 -13.28127,-17.70836 V 60.583646 c 0,-11.805573 4.42709,-17.70836 13.28127,-17.70836 h 78.35949 c 5.90279,0 8.85418,2.951393 8.85418,8.85418 0,5.902787 -2.95139,8.85418 -8.85418,8.85418 h -71.05479 v 53.125084 c 8.85418,0 26.41497,-0.0738 52.68237,-0.22136 6.93577,0 10.47745,3.02518 10.62502,9.07554 0.14757,5.90279 -3.17275,8.85418 -9.96096,8.85418 z"
       id="text1"
       style="font-size:226.667px;line-height:0;font-family:'Roboto Round';-inkscape-font-specification:'Roboto Round';white-space:pre;inline-size:700.785;fill:#ffffff;stroke:url(#linearGradient4);stroke-width:4.516;paint-order:stroke fill markers"
       transform="translate(-6.5271395,7.8325674)"
       aria-label="NOTE"
       sodipodi:nodetypes="cscccssscsccssccsscscccsccsccssscsccscsccsscssscssssssscccccssssssssccccs" />
    <path
       d="m 70.182512,624.77915 q -4.531248,0 -8.229162,-2.13541 -3.697915,-2.13542 -5.624997,-5.98958 -1.874999,-3.90625 -1.927082,-9.06249 0,-1.09375 0,-3.22917 0,-8.33333 3.854164,-12.91666 3.906248,-4.58333 10.937494,-4.58333 5.781246,0 8.802078,3.07292 3.020831,3.07291 3.958331,6.45833 0.677083,2.65624 -1.093749,3.33333 -1.822916,0.625 -2.812499,-1.71875 -2.864581,-7.29166 -8.802078,-7.13542 -4.89583,0 -7.395829,3.4375 -2.552082,3.4375 -2.552082,9.94791 0,0.98959 0,2.96875 0,6.25 3.020832,9.84375 3.020831,3.64583 7.864579,3.64583 5.781246,-0.10417 7.708328,-3.07292 1.979166,-3.02083 1.510416,-7.44791 -2.760415,0 -8.333328,0 -2.760415,0 -2.760415,-2.08333 0,-2.13542 2.760415,-2.13542 8.333328,0 10.41666,0 2.083332,0 2.083332,4.21875 -0.15625,1.45833 -0.3125,3.125 -0.156249,1.71875 -0.572916,3.4375 -0.781249,3.12499 -3.385414,5.57291 -2.604166,2.44791 -9.114578,2.44791 z m 37.864558,-2.13541 q 0,-1.09375 0,-1.09375 -3.22916,3.75 -8.541658,3.75 -4.166664,0 -6.822913,-2.1875 -2.656248,-2.1875 -2.656248,-5.83333 0,-4.375 3.385415,-6.82291 3.333331,-2.44792 9.374994,-2.44792 1.5625,0 4.6875,0 0,-0.52083 0,-2.1875 0,-2.55208 -1.51042,-4.06249 -1.51041,-1.45834 -4.42708,-1.45834 -2.604164,0 -4.062497,0.72917 -1.458332,0.78125 -1.458332,2.65625 0,0.78125 -0.416667,1.5625 -0.364583,0.78125 -1.145832,0.98958 -0.520833,0.15625 -1.249999,0 -0.78125,-0.10417 -1.354166,-0.625 -0.3125,-0.26042 -0.520833,-0.78125 -0.15625,-0.46875 -0.15625,-1.14583 0,-2.13542 1.197916,-3.54167 1.249999,-1.45833 3.802081,-2.60416 2.552082,-1.14583 5.624999,-1.14583 4.89583,0 7.65624,2.44791 2.76042,2.44792 2.86458,6.71875 0,4.32291 0,12.96874 0,2.39583 0,2.1875 0,-0.20834 0,1.35416 0,3.22917 -2.13541,3.22917 -2.13542,0 -2.13542,-2.65625 z m -7.81249,-1.77083 q 2.29166,0 4.32291,-1.14584 2.03125,-1.19791 2.91667,-3.07291 0,-1.92708 0,-5.78125 -0.9375,0 -3.75,0 -8.854162,0 -8.854162,5.20833 0,2.23959 1.510416,3.54167 1.510416,1.25 3.854166,1.25 z m 24.0104,-22.29166 q 0,0.3125 0,1.09375 1.35417,-3.80208 6.92708,-3.74999 5.9375,0 9.79166,4.68749 1.35417,-2.03125 3.07292,-3.38541 1.66666,-1.30208 4.73958,-1.30208 8.85416,0.20833 10.15624,10.15624 0,6.25 0,18.6979 -1.04167,0 -4.27083,0 -0.0521,-4.68749 -0.10417,-18.59373 0,-3.02084 -1.51041,-4.53125 -1.51042,-1.45833 -4.79167,-1.45833 -2.65625,0 -4.37499,1.61458 -1.71875,1.5625 -2.03125,4.27083 0,5.3125 0,15.98957 0,3.22917 -2.13542,3.22917 -2.13541,0 -2.13541,-3.22917 0,-3.95833 0,-15.98957 -0.52084,-6.09375 -6.92708,-5.88541 -5.15625,0.3125 -6.40625,4.27083 0,5.88541 0,17.60415 0,3.22917 -2.13542,3.22917 -2.13541,0 -2.13541,-3.22917 0,-5.83333 0,-23.48957 0,-2.65624 2.13541,-2.65624 2.13542,0 2.13542,2.65624 z m 53.85414,26.61457 q -5.72916,0 -9.32291,-3.80208 -3.59375,-3.75 -3.59375,-10.05208 0,-0.26041 0,-0.88541 0,-4.16667 1.61458,-7.5 1.61459,-3.28125 4.47917,-5.10416 2.86458,-1.875 6.24999,-1.875 5.46875,0 8.54166,3.69791 3.02084,3.75 3.02084,8.54166 0,0.78125 -0.15625,1.61459 -0.20834,0.83333 -0.625,1.30208 -0.36459,0.41667 -1.35417,0.625 -0.98958,0.20833 -2.65625,0.20833 -3.59375,0 -14.27082,0 0.10416,4.16667 2.44791,6.71875 2.29167,2.55208 5.88542,2.55208 2.76041,-0.20833 3.80208,-0.72917 1.09375,-0.57291 2.39583,-2.29166 0.52083,-0.57292 1.25,-0.9375 0.78125,-0.36458 1.25,-0.26042 0.3125,0.10417 0.625,0.36459 0.36458,0.3125 0.46875,0.78125 0.10416,0.36458 -0.0521,0.98958 -0.15625,0.57291 -0.57291,1.35416 -3.125,4.73958 -8.02083,4.79167 -0.67708,0 -1.40625,-0.10417 z M 177.36995,599.675 q -2.91666,0 -4.68749,2.34375 -1.77084,2.34375 -2.23959,6.19791 4.58333,0 13.85416,0 0,-0.15625 0,-0.57291 -0.20833,-3.69792 -2.08333,-5.83333 -1.82292,-2.13542 -4.84375,-2.13542 z m 25.26041,11.14583 q -2.34375,0 -9.27083,0 -2.08333,0 -2.08333,-2.08333 0,-2.08333 2.03125,-2.08333 2.29166,0 9.32291,0 2.03125,0 2.03125,2.08333 0,2.08333 -2.03125,2.08333 z m 13.48956,-18.64582 q 0,1.09375 0,4.27083 0.9375,0 3.85416,0 1.45834,0 1.45834,1.875 0,1.875 -1.5625,1.875 -0.9375,0 -3.75,0 0,4.42708 0.0521,17.60415 0,1.66667 0.46875,2.44792 0.46875,0.78125 2.13542,0.78125 1.09375,0 2.65625,-0.52084 0.46875,-0.15625 0.9375,-0.10416 0.46875,0.0521 0.72916,0.46875 0.15625,0.26041 0.20834,0.83333 0,0.10417 0,0.20833 0,0.46875 -0.20834,0.98959 -0.10416,0.3125 -0.41666,0.67708 -0.26042,0.36458 -0.67709,0.625 -1.61458,1.09375 -4.16666,1.09375 -3.22917,0 -4.84375,-1.97917 -1.66666,-1.92708 -1.66666,-5.52083 0,-5.88541 0,-17.60415 -0.83334,0 -3.22917,0 -2.13541,0 -2.13541,-1.875 0,-1.875 2.13541,-1.875 0.78125,0 3.22917,0 0,-1.04167 0,-4.27083 0,-2.65625 2.39583,-2.65625 2.39583,0 2.39583,2.65625 z m 24.37499,8.54166 q -1.14584,-0.0521 -2.1875,0 -4.73958,0 -6.40625,4.0625 0,5.78124 0.0521,17.29165 0,3.22917 -2.39583,3.22917 -2.39583,0 -2.39583,-3.22917 0,-5.72916 0,-22.91665 0,-2.70833 2.39583,-2.70833 2.39583,0 2.39583,2.70833 0,0.10417 0,0.52083 2.29167,-3.59374 6.25,-3.59374 0.15625,0 0.36458,0 1.71875,0 2.44792,0.36458 0.67708,0.20833 1.25,0.67708 0.57291,0.52083 0.625,1.25 0.0521,0.10417 0.0521,0.20833 0,0.41667 -0.15625,0.98959 -0.20833,0.67708 -0.72916,1.04166 -0.26042,0.15625 -0.67709,0.20834 -0.41666,0.0521 -0.88541,-0.10417 z m 21.8229,21.92707 q 0,-1.09375 0,-1.09375 -3.22916,3.75 -8.54166,3.75 -4.16667,0 -6.82291,-2.1875 -2.65625,-2.1875 -2.65625,-5.83333 0,-4.375 3.38541,-6.82291 3.33333,-2.44792 9.375,-2.44792 1.5625,0 4.68749,0 0,-0.52083 0,-2.1875 0,-2.55208 -1.51041,-4.06249 Q 258.72406,600.3 255.8074,600.3 q -2.60417,0 -4.0625,0.72917 -1.45833,0.78125 -1.45833,2.65625 0,0.78125 -0.41667,1.5625 -0.36458,0.78125 -1.14583,0.98958 -0.52083,0.15625 -1.25,0 -0.78125,-0.10417 -1.35417,-0.625 -0.3125,-0.26042 -0.52083,-0.78125 -0.15625,-0.46875 -0.15625,-1.14583 0,-2.13542 1.19792,-3.54167 1.25,-1.45833 3.80208,-2.60416 2.55208,-1.14583 5.62499,-1.14583 4.89583,0 7.65625,2.44791 2.76041,2.44792 2.86458,6.71875 0,4.32291 0,12.96874 0,2.39583 0,2.1875 0,-0.20834 0,1.35416 0,3.22917 -2.13541,3.22917 -2.13542,0 -2.13542,-2.65625 z m -7.81249,-1.77083 q 2.29166,0 4.32291,-1.14584 2.03125,-1.19791 2.91666,-3.07291 0,-1.92708 0,-5.78125 -0.9375,0 -3.74999,0 -8.85417,0 -8.85417,5.20833 0,2.23959 1.51042,3.54167 1.51042,1.25 3.85417,1.25 z m 25.05207,0.67708 q 0,3.75 -2.39583,3.75 -2.39583,0 -2.39583,-3.75 0,-5.3125 0,-21.35415 0,-3.69792 2.34375,-3.75 0.0521,0 0.0521,0 2.39583,0 2.39583,3.75 0,5.36458 0,21.35415 z m -5.36458,-32.4479 q 0,-1.14583 0.67708,-1.97916 0.72917,-0.78125 2.13542,-0.78125 1.40625,0 2.13541,0.78125 0.72917,0.83333 0.72917,1.97916 0,1.19792 -0.72917,1.97917 -0.72916,0.78125 -2.13541,0.78125 -1.40625,0 -2.13542,-0.78125 -0.67708,-0.78125 -0.67708,-1.97917 z m 17.23957,10.05208 q 0,0.26042 0,1.04167 2.44792,-4.16667 8.02083,-4.27083 8.74999,-0.0521 9.58333,10.15624 0,5.3125 0,15.98957 0,3.22917 -2.39583,3.22917 -2.39584,0 -2.39584,-3.22917 0,-3.95833 0,-15.98957 -0.0521,-3.07292 -1.25,-4.47916 -1.19791,-1.40625 -4.11458,-1.40625 -2.34375,0 -4.16666,1.25 -1.875,1.19791 -2.8125,3.22916 0,5.83333 0.0521,17.39582 0,3.22917 -2.39583,3.22917 -2.39583,0 -2.39583,-3.22917 0,-5.72916 0,-22.91665 0,-3.22916 2.13542,-3.22916 2.13541,0 2.13541,3.22916 z m 36.56249,26.04165 q -5.72916,0 -9.32291,-3.80208 -3.59375,-3.75 -3.59375,-10.05208 0,-0.26041 0,-0.88541 0,-4.16667 1.61459,-7.5 1.61458,-3.28125 4.47916,-5.10416 2.86458,-1.875 6.25,-1.875 5.46874,0 8.54166,3.69791 3.02083,3.75 3.02083,8.54166 0,0.78125 -0.15625,1.61459 -0.20833,0.83333 -0.625,1.30208 -0.36458,0.41667 -1.35417,0.625 -0.98958,0.20833 -2.65625,0.20833 -3.59374,0 -14.27082,0 0.10417,4.16667 2.44791,6.71875 2.29167,2.55208 5.88542,2.55208 2.76041,-0.20833 3.80208,-0.72917 1.09375,-0.57291 2.39583,-2.29166 0.52083,-0.57292 1.25,-0.9375 0.78125,-0.36458 1.25,-0.26042 0.3125,0.10417 0.625,0.36459 0.36458,0.3125 0.46875,0.78125 0.10417,0.36458 -0.0521,0.98958 -0.15625,0.57291 -0.57292,1.35416 -3.125,4.73958 -8.02083,4.79167 -0.67708,0 -1.40625,-0.10417 z M 327.26571,599.675 q -2.91667,0 -4.6875,2.34375 -1.77083,2.34375 -2.23958,6.19791 4.58333,0 13.85415,0 0,-0.15625 0,-0.57291 -0.20833,-3.69792 -2.08333,-5.83333 -1.82291,-2.13542 -4.84374,-2.13542 z m 30.93746,1.04167 q -1.14583,-0.0521 -2.1875,0 -4.73958,0 -6.40624,4.0625 0,5.78124 0.0521,17.29165 0,3.22917 -2.39583,3.22917 -2.39583,0 -2.39583,-3.22917 0,-5.72916 0,-22.91665 0,-2.70833 2.39583,-2.70833 2.39583,0 2.39583,2.70833 0,0.10417 0,0.52083 2.29167,-3.59374 6.25,-3.59374 0.15625,0 0.36458,0 1.71875,0 2.44792,0.36458 0.67708,0.20833 1.25,0.67708 0.57291,0.52083 0.625,1.25 0.0521,0.10417 0.0521,0.20833 0,0.41667 -0.15625,0.98959 -0.20833,0.67708 -0.72917,1.04166 -0.26041,0.15625 -0.67708,0.20834 -0.41667,0.0521 -0.88542,-0.10417 z m 20.05206,21.92707 q 0,-5.625 0,-22.4479 -1.09375,0 -4.27083,0 -1.61458,0 -1.61458,-1.875 0,-1.875 1.61458,-1.875 1.04167,0.0521 4.27083,0.0521 0,-0.72916 0,-2.91666 0,-4.53125 2.39583,-6.97917 2.44792,-2.49999 6.875,-2.49999 1.66667,0 3.28125,0.46875 0.72916,0.20833 1.40625,0.72916 0.67708,0.52083 0.72916,1.14583 0,0.0521 0,0.15625 0,0.41667 -0.15625,0.88542 -0.15625,0.57292 -0.67708,0.88542 -0.20833,0.15625 -0.625,0.20833 -0.41666,0 -0.9375,-0.10417 -1.19791,-0.26041 -2.60416,-0.26041 -2.34375,0 -3.59375,1.35416 -1.30208,1.40625 -1.30208,3.95833 0,0.98959 0,2.96875 1.45833,0 5.88541,0 1.61458,-0.0521 1.61458,1.82292 0,1.875 -1.61458,1.875 -1.45833,0 -5.88541,0 0,5.88541 0,12.81249 0,6.92708 0,9.63541 0,2.65625 -2.39584,2.65625 -2.39583,0 -2.39583,-2.65625 z m 14.99999,-12.23958 q 0,-4.11458 1.66667,-7.44791 1.61458,-3.28125 4.53125,-5.10416 2.91666,-1.77083 6.61458,-1.77083 5.72916,0 9.32291,3.95833 3.54166,4.01041 3.54166,10.62499 0,0.10417 0,0.3125 0,4.11458 -1.5625,7.39583 -1.61458,3.28125 -4.53124,5.10416 -2.91667,1.82292 -6.71875,1.82292 -5.72916,0 -9.27083,-4.01042 -3.59375,-3.95833 -3.59375,-10.52082 0,-0.10417 0,-0.36459 z m 4.89584,0.57292 q 0,4.6875 2.13541,7.55208 2.1875,2.8125 5.83333,2.8125 3.69791,0 5.83333,-2.86458 2.13542,-2.86459 2.13542,-8.07292 0,-4.63541 -2.1875,-7.49999 -2.1875,-2.86458 -5.83333,-2.86458 -3.54167,0 -5.72917,2.81249 -2.18749,2.86459 -2.18749,8.125 z m 40.2604,-10.26041 q -1.14584,-0.0521 -2.1875,0 -4.73958,0 -6.40625,4.0625 0,5.78124 0.0521,17.29165 0,3.22917 -2.39583,3.22917 -2.39583,0 -2.39583,-3.22917 0,-5.72916 0,-22.91665 0,-2.70833 2.39583,-2.70833 2.39583,0 2.39583,2.70833 0,0.10417 0,0.52083 2.29167,-3.59374 6.25,-3.59374 0.15625,0 0.36458,0 1.71875,0 2.44792,0.36458 0.67708,0.20833 1.25,0.67708 0.57291,0.52083 0.625,1.25 0.0521,0.10417 0.0521,0.20833 0,0.41667 -0.15625,0.98959 -0.20833,0.67708 -0.72917,1.04166 -0.26041,0.15625 -0.67708,0.20834 -0.41666,0.0521 -0.88541,-0.10417 z m 24.32292,-8.54166 q 0,1.09375 0,4.27083 0.9375,0 3.85416,0 1.45833,0 1.45833,1.875 0,1.875 -1.5625,1.875 -0.9375,0 -3.74999,0 0,4.42708 0.0521,17.60415 0,1.66667 0.46875,2.44792 0.46875,0.78125 2.13541,0.78125 1.09375,0 2.65625,-0.52084 0.46875,-0.15625 0.9375,-0.10416 0.46875,0.0521 0.72917,0.46875 0.15625,0.26041 0.20833,0.83333 0,0.10417 0,0.20833 0,0.46875 -0.20833,0.98959 -0.10417,0.3125 -0.41667,0.67708 -0.26041,0.36458 -0.67708,0.625 -1.61458,1.09375 -4.16666,1.09375 -3.22917,0 -4.84375,-1.97917 -1.66667,-1.92708 -1.66667,-5.52083 0,-5.88541 0,-17.60415 -0.83333,0 -3.22916,0 -2.13542,0 -2.13542,-1.875 0,-1.875 2.13542,-1.875 0.78125,0 3.22916,0 0,-1.04167 0,-4.27083 0,-2.65625 2.39583,-2.65625 2.39584,0 2.39584,2.65625 z m 15.83332,5.88541 q 3.22917,-2.65625 8.02083,-2.65625 8.12499,-0.0521 8.54166,10.67708 0,5.52083 0,16.56249 0,2.65625 -2.13541,2.65625 -2.13542,0 -2.13542,-2.65625 0,-4.16666 0,-16.56249 -0.0521,-3.07292 -1.25,-4.73958 -1.19792,-1.66667 -4.11458,-1.66667 -2.34375,0 -4.11458,1.45834 -1.82292,1.45833 -2.8125,3.48958 0,6.04166 0,18.02082 0,2.65625 -2.39583,2.65625 -2.39583,0 -2.39583,-2.65625 0,-8.80208 0,-35.2604 0,-2.65624 2.39583,-2.65624 2.39583,0 2.39583,2.65624 0,2.65625 0,10.67708 z m 35.98955,27.1354 q -5.72916,0 -9.32291,-3.80208 -3.59375,-3.75 -3.59375,-10.05208 0,-0.26041 0,-0.88541 0,-4.16667 1.61458,-7.5 1.61459,-3.28125 4.47917,-5.10416 2.86458,-1.875 6.24999,-1.875 5.46875,0 8.54166,3.69791 3.02084,3.75 3.02084,8.54166 0,0.78125 -0.15625,1.61459 -0.20834,0.83333 -0.625,1.30208 -0.36459,0.41667 -1.35417,0.625 -0.98958,0.20833 -2.65625,0.20833 -3.59375,0 -14.27082,0 0.10416,4.16667 2.44791,6.71875 2.29167,2.55208 5.88542,2.55208 2.76041,-0.20833 3.80208,-0.72917 1.09375,-0.57291 2.39583,-2.29166 0.52083,-0.57292 1.25,-0.9375 0.78125,-0.36458 1.25,-0.26042 0.3125,0.10417 0.625,0.36459 0.36458,0.3125 0.46875,0.78125 0.10416,0.36458 -0.0521,0.98958 -0.15625,0.57291 -0.57291,1.35416 -3.125,4.73958 -8.02083,4.79167 -0.67708,0 -1.40625,-0.10417 z M 513.82808,599.675 q -2.91666,0 -4.68749,2.34375 -1.77084,2.34375 -2.23959,6.19791 4.58333,0 13.85416,0 0,-0.15625 0,-0.57291 -0.20833,-3.69792 -2.08333,-5.83333 -1.82292,-2.13542 -4.84375,-2.13542 z m 29.53124,10.78125 q 0,-6.51042 3.02083,-10.46875 3.07292,-3.90624 8.07291,-3.90624 4.94792,0 7.86458,3.38541 -0.0521,-3.85416 -0.10416,-11.56249 0,-3.17708 2.39583,-3.17708 2.39583,0 2.39583,3.17708 0,8.54166 0,34.16664 0,3.22917 -2.13542,3.22917 -2.13541,0 -2.18749,-3.22917 0.0521,-0.52083 0.0521,-0.52083 0,0 0,0 -2.86458,3.54166 -8.33333,3.75 -4.89583,0 -7.96875,-4.01042 -3.07291,-4.01041 -3.07291,-10.46874 0,-0.15625 0,-0.36458 z m 4.79166,0.52083 q 0,4.79166 1.97917,7.5 1.97916,2.70833 5.46875,2.70833 4.58333,0 6.71874,-4.11458 0,-4.32292 0,-12.91666 -2.1875,-4.01042 -6.66666,-4.01042 -3.54167,0 -5.52083,2.76042 -1.97917,2.70833 -1.97917,8.07291 z m 37.91665,14.21874 q -5.72917,0 -9.32292,-3.80208 -3.59374,-3.75 -3.59374,-10.05208 0,-0.26041 0,-0.88541 0,-4.16667 1.61458,-7.5 1.61458,-3.28125 4.47916,-5.10416 2.86458,-1.875 6.25,-1.875 5.46875,0 8.54166,3.69791 3.02083,3.75 3.02083,8.54166 0,0.78125 -0.15625,1.61459 -0.20833,0.83333 -0.625,1.30208 -0.36458,0.41667 -1.35416,0.625 -0.98959,0.20833 -2.65625,0.20833 -3.59375,0 -14.27083,0 0.10417,4.16667 2.44792,6.71875 2.29166,2.55208 5.88541,2.55208 2.76042,-0.20833 3.80208,-0.72917 1.09375,-0.57291 2.39584,-2.29166 0.52083,-0.57292 1.24999,-0.9375 0.78125,-0.36458 1.25,-0.26042 0.3125,0.10417 0.625,0.36459 0.36459,0.3125 0.46875,0.78125 0.10417,0.36458 -0.0521,0.98958 -0.15625,0.57291 -0.57292,1.35416 -3.12499,4.73958 -8.02083,4.79167 -0.67708,0 -1.40624,-0.10417 z M 585.33846,599.675 q -2.91667,0 -4.6875,2.34375 -1.77083,2.34375 -2.23958,6.19791 4.58333,0 13.85416,0 0,-0.15625 0,-0.57291 -0.20833,-3.69792 -2.08333,-5.83333 -1.82292,-2.13542 -4.84375,-2.13542 z m 26.77083,18.54166 q 1.45834,-4.73958 5.78125,-19.06249 0.88542,-2.76041 2.76042,-2.76041 0.36458,0 0.67708,0.0521 1.66666,0.41666 1.66666,1.77083 0,0.625 -0.3125,1.45833 -1.87499,5.46875 -7.44791,21.87499 -1.09375,3.75 -2.96875,3.75 -1.875,0 -2.91666,-3.75 -2.03125,-5.57291 -8.02083,-22.39582 -0.10417,-0.41667 -0.10417,-0.78125 0,-1.45833 1.71875,-1.92708 2.13542,-0.52083 3.17708,2.70833 1.51042,4.73958 5.98958,19.06249 z m 28.0729,6.97916 q -5.72916,0 -9.32291,-3.80208 -3.59375,-3.75 -3.59375,-10.05208 0,-0.26041 0,-0.88541 0,-4.16667 1.61458,-7.5 1.61458,-3.28125 4.47917,-5.10416 2.86458,-1.875 6.24999,-1.875 5.46875,0 8.54166,3.69791 3.02084,3.75 3.02084,8.54166 0,0.78125 -0.15625,1.61459 -0.20834,0.83333 -0.625,1.30208 -0.36459,0.41667 -1.35417,0.625 -0.98958,0.20833 -2.65625,0.20833 -3.59375,0 -14.27082,0 0.10416,4.16667 2.44791,6.71875 2.29167,2.55208 5.88542,2.55208 2.76041,-0.20833 3.80208,-0.72917 1.09375,-0.57291 2.39583,-2.29166 0.52083,-0.57292 1.25,-0.9375 0.78125,-0.36458 1.25,-0.26042 0.3125,0.10417 0.625,0.36459 0.36458,0.3125 0.46875,0.78125 0.10416,0.36458 -0.0521,0.98958 -0.15625,0.57291 -0.57291,1.35416 -3.125,4.73958 -8.02083,4.79167 -0.67709,0 -1.40625,-0.10417 z M 639.45302,599.675 q -2.91666,0 -4.68749,2.34375 -1.77084,2.34375 -2.23959,6.19791 4.58333,0 13.85416,0 0,-0.15625 0,-0.57291 -0.20833,-3.69792 -2.08333,-5.83333 -1.82292,-2.13542 -4.84375,-2.13542 z m 22.91667,21.87499 q 0,3.75 -2.39583,3.75 -2.39583,0 -2.39583,-3.75 0,-8.28125 0,-33.0729 0,-3.74999 2.39583,-3.74999 2.39583,0 2.39583,3.74999 0,8.28125 0,33.0729 z m 6.19788,-11.14583 q 0,-4.11458 1.66667,-7.44791 1.61458,-3.28125 4.53125,-5.10416 2.91666,-1.77083 6.61457,-1.77083 5.72917,0 9.32292,3.95833 3.54166,4.01041 3.54166,10.62499 0,0.10417 0,0.3125 0,4.11458 -1.5625,7.39583 -1.61458,3.28125 -4.53125,5.10416 -2.91666,1.82292 -6.71874,1.82292 -5.72917,0 -9.27083,-4.01042 -3.59375,-3.95833 -3.59375,-10.52082 0,-0.10417 0,-0.36459 z m 4.89583,0.57292 q 0,4.6875 2.13542,7.55208 2.1875,2.8125 5.83333,2.8125 3.69791,0 5.83333,-2.86458 2.13541,-2.86459 2.13541,-8.07292 0,-4.63541 -2.1875,-7.49999 -2.18749,-2.86458 -5.83333,-2.86458 -3.54166,0 -5.72916,2.81249 -2.1875,2.86459 -2.1875,8.125 z m 50.62495,0 q 0,6.45833 -2.91667,10.36458 -2.96874,3.95833 -8.02082,3.95833 -5,0.57291 -7.96875,-2.65625 0,3.54166 0,10.67708 0,2.65624 -2.39583,2.65624 -2.39583,0 -2.39583,-2.65624 0,-8.54167 0,-34.16665 0,-2.70833 2.13541,-2.70833 2.13542,0 2.13542,2.70833 0,0.10417 0,0.52083 1.97916,-3.22916 7.44791,-3.22916 5.10416,0 8.54166,3.64583 3.4375,3.64583 3.4375,10.46874 0,0.15625 0,0.41667 z m -4.79166,-0.52083 q 0,-4.79167 -2.03125,-7.55208 -2.08333,-2.76042 -5.625,-2.76042 -4.375,0 -6.51041,3.90625 0,4.47916 0,13.43749 2.13541,3.85417 6.56249,3.85417 3.48959,0 5.52083,-2.76042 2.08334,-2.70833 2.08334,-8.12499 z m 15.31253,-11.875 q 0,0.3125 0,1.09375 1.35416,-3.80208 6.92707,-3.74999 5.9375,0 9.79167,4.68749 1.35416,-2.03125 3.07291,-3.38541 1.66667,-1.30208 4.73958,-1.30208 8.85416,0.20833 10.15624,10.15624 0,6.25 0,18.6979 -1.04166,0 -4.27083,0 -0.0521,-4.68749 -0.10416,-18.59373 0,-3.02084 -1.51042,-4.53125 -1.51041,-1.45833 -4.79166,-1.45833 -2.65625,0 -4.375,1.61458 -1.71875,1.5625 -2.03125,4.27083 0,5.3125 0,15.98957 0,3.22917 -2.13541,3.22917 -2.13542,0 -2.13542,-3.22917 0,-3.95833 0,-15.98957 -0.52083,-6.09375 -6.92708,-5.88541 -5.15625,0.3125 -6.40624,4.27083 0,5.88541 0,17.60415 0,3.22917 -2.13542,3.22917 -2.13542,0 -2.13542,-3.22917 0,-5.83333 0,-23.48957 0,-2.65624 2.13542,-2.65624 2.13542,0 2.13542,2.65624 z m 53.8541,26.61457 q -5.72917,0 -9.32291,-3.80208 -3.59375,-3.75 -3.59375,-10.05208 0,-0.26041 0,-0.88541 0,-4.16667 1.61458,-7.5 1.61458,-3.28125 4.47916,-5.10416 2.86459,-1.875 6.25,-1.875 5.46875,0 8.54166,3.69791 3.02083,3.75 3.02083,8.54166 0,0.78125 -0.15625,1.61459 -0.20833,0.83333 -0.625,1.30208 -0.36458,0.41667 -1.35416,0.625 -0.98958,0.20833 -2.65625,0.20833 -3.59375,0 -14.27083,0 0.10417,4.16667 2.44792,6.71875 2.29167,2.55208 5.88541,2.55208 2.76042,-0.20833 3.80208,-0.72917 1.09375,-0.57291 2.39584,-2.29166 0.52083,-0.57292 1.25,-0.9375 0.78124,-0.36458 1.24999,-0.26042 0.3125,0.10417 0.625,0.36459 0.36459,0.3125 0.46875,0.78125 0.10417,0.36458 -0.0521,0.98958 -0.15625,0.57291 -0.57292,1.35416 -3.12499,4.73958 -8.02082,4.79167 -0.67709,0 -1.40625,-0.10417 z M 787.73415,599.675 q -2.91666,0 -4.6875,2.34375 -1.77083,2.34375 -2.23958,6.19791 4.58333,0 13.85416,0 0,-0.15625 0,-0.57291 -0.20833,-3.69792 -2.08333,-5.83333 -1.82292,-2.13542 -4.84375,-2.13542 z m 21.875,-0.52083 q 0,0.26042 0,1.04167 2.44792,-4.16667 8.02083,-4.27083 8.75,-0.0521 9.58333,10.15624 0,5.3125 0,15.98957 0,3.22917 -2.39583,3.22917 -2.39583,0 -2.39583,-3.22917 0,-3.95833 0,-15.98957 -0.0521,-3.07292 -1.25,-4.47916 -1.19792,-1.40625 -4.11458,-1.40625 -2.34375,0 -4.16667,1.25 -1.875,1.19791 -2.8125,3.22916 0,5.83333 0.0521,17.39582 0,3.22917 -2.39583,3.22917 -2.39584,0 -2.39584,-3.22917 0,-5.72916 0,-22.91665 0,-3.22916 2.13542,-3.22916 2.13541,0 2.13541,3.22916 z m 31.56248,-6.97916 q 0,1.09375 0,4.27083 0.9375,0 3.85417,0 1.45833,0 1.45833,1.875 0,1.875 -1.5625,1.875 -0.9375,0 -3.75,0 0,4.42708 0.0521,17.60415 0,1.66667 0.46875,2.44792 0.46875,0.78125 2.13541,0.78125 1.09375,0 2.65625,-0.52084 0.46875,-0.15625 0.9375,-0.10416 0.46875,0.0521 0.72916,0.46875 0.15625,0.26041 0.20834,0.83333 0,0.10417 0,0.20833 0,0.46875 -0.20834,0.98959 -0.10416,0.3125 -0.41666,0.67708 -0.26042,0.36458 -0.67708,0.625 -1.61459,1.09375 -4.16667,1.09375 -3.22916,0 -4.84375,-1.97917 -1.66666,-1.92708 -1.66666,-5.52083 0,-5.88541 0,-17.60415 -0.83333,0 -3.22917,0 -2.13541,0 -2.13541,-1.875 0,-1.875 2.13541,-1.875 0.78125,0 3.22917,0 0,-1.04167 0,-4.27083 0,-2.65625 2.39583,-2.65625 2.39583,0 2.39583,2.65625 z"
       id="text7"
       style="font-size:53.3333px;line-height:0;font-family:'Roboto Round';-inkscape-font-specification:'Roboto Round';fill:#ffffff;stroke:url(#linearGradient23);stroke-width:2;paint-order:stroke fill markers"
       aria-label="Game-trainer for the development" />
    <path
       d="m 241.23704,673.06469 q 0,-4.11459 1.66667,-7.44792 1.61458,-3.28124 4.53125,-5.10416 2.91666,-1.77083 6.61458,-1.77083 5.72916,0 9.32291,3.95833 3.54166,4.01041 3.54166,10.62499 0,0.10417 0,0.3125 0,4.11458 -1.5625,7.39583 -1.61458,3.28125 -4.53124,5.10416 -2.91667,1.82292 -6.71875,1.82292 -5.72916,0 -9.27083,-4.01041 -3.59375,-3.95833 -3.59375,-10.52083 0,-0.10417 0,-0.36458 z m 4.89583,0.57291 q 0,4.6875 2.13542,7.55208 2.1875,2.8125 5.83333,2.8125 3.69791,0 5.83333,-2.86458 2.13541,-2.86458 2.13541,-8.07291 0,-4.63542 -2.18749,-7.5 -2.1875,-2.86458 -5.83333,-2.86458 -3.54167,0 -5.72917,2.8125 -2.1875,2.86458 -2.1875,8.12499 z m 29.06249,11.66666 q 0,-5.62499 0,-22.4479 -1.09375,0 -4.27083,0 -1.61459,0 -1.61459,-1.875 0,-1.875 1.61459,-1.875 1.04166,0.0521 4.27083,0.0521 0,-0.72916 0,-2.91666 0,-4.53125 2.39583,-6.97916 2.44791,-2.5 6.875,-2.5 1.66666,0 3.28124,0.46875 0.72917,0.20833 1.40625,0.72916 0.67709,0.52084 0.72917,1.14584 0,0.0521 0,0.15625 0,0.41666 -0.15625,0.88541 -0.15625,0.57292 -0.67708,0.88542 -0.20834,0.15625 -0.625,0.20833 -0.41667,0 -0.9375,-0.10416 -1.19792,-0.26042 -2.60417,-0.26042 -2.34375,0 -3.59375,1.35416 -1.30208,1.40625 -1.30208,3.95834 0,0.98958 0,2.96874 1.45833,0 5.88541,0 1.61459,-0.0521 1.61459,1.82292 0,1.875 -1.61459,1.875 -1.45833,0 -5.88541,0 0,5.88541 0,12.81249 0,6.92708 0,9.63541 0,2.65625 -2.39583,2.65625 -2.39583,0 -2.39583,-2.65625 z m 33.85414,-24.06248 q 0,0.3125 0,1.09375 1.35417,-3.80209 6.92708,-3.75 5.9375,0 9.79166,4.68749 1.35417,-2.03124 3.07292,-3.38541 1.66666,-1.30208 4.73958,-1.30208 8.85416,0.20833 10.15624,10.15624 0,6.25 0,18.69791 -1.04166,0 -4.27083,0 -0.0521,-4.6875 -0.10416,-18.59374 0,-3.02083 -1.51042,-4.53125 -1.51042,-1.45833 -4.79166,-1.45833 -2.65625,0 -4.375,1.61458 -1.71875,1.5625 -2.03125,4.27083 0,5.3125 0,15.98958 0,3.22916 -2.13542,3.22916 -2.13541,0 -2.13541,-3.22916 0,-3.95834 0,-15.98958 -0.52083,-6.09374 -6.92708,-5.88541 -5.15625,0.3125 -6.40625,4.27083 0,5.88541 0,17.60416 0,3.22916 -2.13541,3.22916 -2.13542,0 -2.13542,-3.22916 0,-5.83333 0,-23.48957 0,-2.65625 2.13542,-2.65625 2.13541,0 2.13541,2.65625 z m 60.05205,23.48957 q -2.8125,3.33333 -8.59374,3.22916 -4.47917,0 -6.71875,-2.76041 -2.29166,-2.8125 -2.29166,-7.91667 0,-5.15624 0,-15.46874 0,-2.70833 2.39583,-2.70833 2.39583,0 2.39583,2.70833 0,3.85417 0,15.46874 0,6.40625 5,6.5625 5.46874,0.20833 7.29166,-3.90625 0,-6.04166 0,-18.0729 0,-2.70834 2.39583,-2.70834 2.39583,0 2.39583,2.65625 0,5.83333 0,23.48957 0,2.65625 -2.13541,2.65625 -2.13542,0 -2.13542,-2.65625 0,-0.15625 0,-0.57291 z m 28.0729,-4.79167 q 0,-1.92708 -1.45834,-3.02083 -1.51041,-1.09375 -5.15624,-1.875 -3.64583,-0.78125 -5.78125,-1.875 -2.1875,-1.09375 -3.22916,-2.60416 -0.98959,-1.51042 -0.98959,-3.59375 0,-3.4375 2.91667,-5.83333 2.96875,-2.39583 7.49999,-2.39583 4.79167,0 7.76042,2.55208 2.96874,2.5 2.96874,6.35416 0,0.83334 -0.41666,1.61458 -0.36459,0.78125 -1.14583,0.98959 -0.52084,0.10416 -1.30209,0 -0.72916,-0.10417 -1.30208,-0.625 -0.3125,-0.3125 -0.46875,-0.78125 -0.20833,-0.52083 -0.20833,-1.19792 0,-1.97916 -1.66667,-3.4375 -1.66666,-1.51041 -4.21875,-1.51041 -2.60416,0 -4.11458,1.14583 -1.45833,1.14583 -1.45833,2.96875 0,1.77083 1.35417,2.65625 1.40625,0.88541 4.94791,1.66666 3.64583,0.83334 5.88541,1.92709 2.23959,1.14583 3.28125,2.70833 1.09375,1.5625 1.09375,3.85416 0,3.75 -3.02083,6.04166 -3.02083,2.29167 -7.8125,2.29167 -3.38541,0 -5.98958,-1.19792 -2.60416,-1.19791 -4.06249,-3.33333 -1.30209,-2.03125 -1.30209,-4.53124 0,-0.83334 0.41667,-1.61459 0.36458,-0.78125 1.14583,-0.9375 0.52084,-0.15625 1.25,-0.0521 0.78125,0.15625 1.35417,0.625 0.3125,0.3125 0.46875,0.83333 0.20833,0.46875 0.20833,1.14584 0.10417,2.39583 1.82292,3.74999 1.71875,1.35417 4.68749,1.35417 2.70834,0 4.375,-1.09375 1.66667,-1.09375 1.66667,-2.96875 z m 16.5104,4.27083 q 0,3.75 -2.39583,3.75 -2.39583,0 -2.39583,-3.75 0,-5.31249 0,-21.35415 0,-3.69792 2.34375,-3.75 0.0521,0 0.0521,0 2.39583,0 2.39583,3.75 0,5.36458 0,21.35415 z m -5.36458,-32.44789 q 0,-1.14584 0.67709,-1.97917 0.72916,-0.78125 2.13541,-0.78125 1.40625,0 2.13542,0.78125 0.72916,0.83333 0.72916,1.97917 0,1.19791 -0.72916,1.97916 -0.72917,0.78125 -2.13542,0.78125 -1.40625,0 -2.13541,-0.78125 -0.67709,-0.78125 -0.67709,-1.97916 z m 23.95832,32.03123 q 2.55208,0 4.47917,-1.5625 1.92708,-1.5625 2.13541,-3.90625 0,-0.78125 0.41667,-1.5625 0.36458,-0.78125 1.14583,-0.98958 0.52083,-0.10417 1.25,0 0.78125,0.10416 1.30208,0.625 0.3125,0.3125 0.52083,0.78125 0.15625,0.52083 0.15625,1.14583 -0.10416,2.44791 -1.77083,4.63541 -1.66666,2.1875 -4.21875,3.48958 -2.55208,1.30209 -5.41666,1.30209 -5.78125,0 -9.16666,-3.85417 -3.38541,-3.85416 -3.38541,-10.52082 0,-0.26042 0,-0.78125 0,-4.11458 1.51041,-7.34375 1.51042,-3.17708 4.32292,-4.94791 2.81249,-1.77084 6.66666,-1.77084 5.05208,0.0521 8.17708,2.86459 3.07291,2.81249 3.28124,7.34374 0,0.78125 -0.36458,1.5625 -0.41667,0.78125 -1.14583,0.98958 -0.52083,0.15625 -1.30208,0.0521 -0.78125,-0.15625 -1.30209,-0.67709 -0.3125,-0.26041 -0.52083,-0.78125 -0.15625,-0.46875 -0.15625,-1.14583 -0.20833,-2.76041 -2.08333,-4.47916 -1.82292,-1.77083 -4.58333,-1.77083 -3.64583,0 -5.67708,2.65624 -2.03125,2.60417 -2.03125,7.60417 0,0.3125 0,0.9375 0,4.84374 2.03125,7.49999 1.97916,2.60417 5.72916,2.60417 z m 34.0104,1.51041 q 0,-1.09375 0,-1.09375 -3.22916,3.75 -8.54166,3.75 -4.16666,0 -6.82291,-2.1875 -2.65625,-2.1875 -2.65625,-5.83333 0,-4.375 3.38542,-6.82291 3.33333,-2.44792 9.37499,-2.44792 1.5625,0 4.6875,0 0,-0.52083 0,-2.18749 0,-2.55209 -1.51042,-4.0625 -1.51041,-1.45833 -4.42708,-1.45833 -2.60416,0 -4.0625,0.72916 -1.45833,0.78125 -1.45833,2.65625 0,0.78125 -0.41667,1.5625 -0.36458,0.78125 -1.14583,0.98958 -0.52083,0.15625 -1.25,0 -0.78125,-0.10416 -1.35416,-0.625 -0.3125,-0.26041 -0.52084,-0.78125 -0.15625,-0.46875 -0.15625,-1.14583 0,-2.13542 1.19792,-3.54166 1.25,-1.45834 3.80208,-2.60417 2.55208,-1.14583 5.625,-1.14583 4.89583,0 7.65624,2.44791 2.76042,2.44792 2.86458,6.71875 0,4.32291 0,12.96874 0,2.39583 0,2.1875 0,-0.20833 0,1.35417 0,3.22916 -2.13541,3.22916 -2.13542,0 -2.13542,-2.65625 z m -7.81249,-1.77083 q 2.29166,0 4.32291,-1.14583 2.03125,-1.19792 2.91667,-3.07292 0,-1.92708 0,-5.78124 -0.9375,0 -3.75,0 -8.85416,0 -8.85416,5.20833 0,2.23958 1.51041,3.54166 1.51042,1.25 3.85417,1.25 z m 25.05207,0.67708 q 0,3.75 -2.39583,3.75 -2.39583,0 -2.39583,-3.75 0,-8.28124 0,-33.07289 0,-3.75 2.39583,-3.75 2.39583,0 2.39583,3.75 0,8.28124 0,33.07289 z m 25.57289,-23.48957 q 3.22917,-2.65625 8.02083,-2.65625 8.12499,-0.0521 8.54166,10.67708 0,5.52083 0,16.56249 0,2.65625 -2.13541,2.65625 -2.13542,0 -2.13542,-2.65625 0,-4.16666 0,-16.56249 -0.0521,-3.07291 -1.25,-4.73958 -1.19792,-1.66666 -4.11458,-1.66666 -2.34375,0 -4.11458,1.45833 -1.82292,1.45833 -2.8125,3.48958 0,6.04166 0,18.02082 0,2.65625 -2.39583,2.65625 -2.39583,0 -2.39583,-2.65625 0,-8.80208 0,-35.26039 0,-2.65625 2.39583,-2.65625 2.39583,0 2.39583,2.65625 0,2.65624 0,10.67707 z m 35.98958,27.1354 q -5.72916,0 -9.32291,-3.80208 -3.59375,-3.75 -3.59375,-10.05207 0,-0.26042 0,-0.88542 0,-4.16667 1.61458,-7.5 1.61459,-3.28124 4.47917,-5.10416 2.86458,-1.875 6.24999,-1.875 5.46875,0 8.54167,3.69792 3.02083,3.74999 3.02083,8.54166 0,0.78125 -0.15625,1.61458 -0.20834,0.83333 -0.625,1.30208 -0.36459,0.41667 -1.35417,0.625 -0.98958,0.20833 -2.65625,0.20833 -3.59374,0 -14.27082,0 0.10416,4.16667 2.44791,6.71875 2.29167,2.55208 5.88542,2.55208 2.76041,-0.20833 3.80208,-0.72916 1.09375,-0.57292 2.39583,-2.29167 0.52083,-0.57292 1.25,-0.9375 0.78125,-0.36458 1.25,-0.26041 0.3125,0.10416 0.625,0.36458 0.36458,0.3125 0.46875,0.78125 0.10416,0.36458 -0.0521,0.98958 -0.15625,0.57292 -0.57291,1.35417 -3.125,4.73958 -8.02083,4.79166 -0.67708,0 -1.40625,-0.10417 z m -0.72917,-25.52081 q -2.91666,0 -4.68749,2.34374 -1.77084,2.34375 -2.23959,6.19792 4.58334,0 13.85416,0 0,-0.15625 0,-0.57292 -0.20833,-3.69791 -2.08333,-5.83333 -1.82291,-2.13541 -4.84375,-2.13541 z m 34.68747,22.96873 q 0,-1.09375 0,-1.09375 -3.22917,3.75 -8.54166,3.75 -4.16667,0 -6.82291,-2.1875 -2.65625,-2.1875 -2.65625,-5.83333 0,-4.375 3.38541,-6.82291 3.33333,-2.44792 9.375,-2.44792 1.5625,0 4.68749,0 0,-0.52083 0,-2.18749 0,-2.55209 -1.51041,-4.0625 -1.51042,-1.45833 -4.42708,-1.45833 -2.60417,0 -4.0625,0.72916 -1.45833,0.78125 -1.45833,2.65625 0,0.78125 -0.41667,1.5625 -0.36458,0.78125 -1.14583,0.98958 -0.52084,0.15625 -1.25,0 -0.78125,-0.10416 -1.35417,-0.625 -0.3125,-0.26041 -0.52083,-0.78125 -0.15625,-0.46875 -0.15625,-1.14583 0,-2.13542 1.19792,-3.54166 1.24999,-1.45834 3.80208,-2.60417 2.55208,-1.14583 5.62499,-1.14583 4.89583,0 7.65625,2.44791 2.76041,2.44792 2.86458,6.71875 0,4.32291 0,12.96874 0,2.39583 0,2.1875 0,-0.20833 0,1.35417 0,3.22916 -2.13542,3.22916 -2.13541,0 -2.13541,-2.65625 z m -7.8125,-1.77083 q 2.29167,0 4.32292,-1.14583 2.03125,-1.19792 2.91666,-3.07292 0,-1.92708 0,-5.78124 -0.9375,0 -3.74999,0 -8.85417,0 -8.85417,5.20833 0,2.23958 1.51042,3.54166 1.51042,1.25 3.85416,1.25 z m 33.07291,-20.15624 q -1.14583,-0.0521 -2.1875,0 -4.73958,0 -6.40625,4.0625 0,5.78125 0.0521,17.29166 0,3.22916 -2.39584,3.22916 -2.39583,0 -2.39583,-3.22916 0,-5.72917 0,-22.91666 0,-2.70833 2.39583,-2.70833 2.39584,0 2.39584,2.70833 0,0.10417 0,0.52084 2.29166,-3.59375 6.24999,-3.59375 0.15625,0 0.36459,0 1.71875,0 2.44791,0.36458 0.67708,0.20833 1.25,0.67708 0.57292,0.52084 0.625,1.25 0.0521,0.10417 0.0521,0.20834 0,0.41666 -0.15625,0.98958 -0.20833,0.67708 -0.72916,1.04166 -0.26042,0.15625 -0.67709,0.20834 -0.41666,0.0521 -0.88541,-0.10417 z m 10.05208,20.83332 q 0,3.75 -2.39584,3.75 -2.39583,0 -2.39583,-3.75 0,-5.31249 0,-21.35415 0,-3.69792 2.34375,-3.75 0.0521,0 0.0521,0 2.39584,0 2.39584,3.75 0,5.36458 0,21.35415 z m -5.36458,-32.44789 q 0,-1.14584 0.67708,-1.97917 0.72917,-0.78125 2.13541,-0.78125 1.40625,0 2.13542,0.78125 0.72917,0.83333 0.72917,1.97917 0,1.19791 -0.72917,1.97916 -0.72917,0.78125 -2.13542,0.78125 -1.40624,0 -2.13541,-0.78125 -0.67708,-0.78125 -0.67708,-1.97916 z m 17.23957,10.05207 q 0,0.26042 0,1.04167 2.44791,-4.16667 8.02083,-4.27083 8.74999,-0.0521 9.58332,10.15624 0,5.3125 0,15.98958 0,3.22916 -2.39583,3.22916 -2.39583,0 -2.39583,-3.22916 0,-3.95834 0,-15.98958 -0.0521,-3.07291 -1.25,-4.47916 -1.19792,-1.40625 -4.11458,-1.40625 -2.34375,0 -4.16667,1.25 -1.87499,1.19791 -2.81249,3.22916 0,5.83333 0.0521,17.39583 0,3.22916 -2.39583,3.22916 -2.39583,0 -2.39583,-3.22916 0,-5.72917 0,-22.91666 0,-3.22916 2.13541,-3.22916 2.13542,0 2.13542,3.22916 z m 23.90623,11.30208 q 0,-6.61458 3.02083,-10.52083 3.07292,-3.85416 8.07291,-3.85416 5.41667,-0.0521 8.28125,3.59375 0,-0.36459 0,-1.09375 0,-2.76042 2.13541,-2.76042 2.13542,0 2.13542,2.65625 0,6.40625 0,25.46873 0,5.46875 -3.17708,8.69792 -3.17708,3.22916 -8.59375,3.22916 -3.07291,0 -5.98958,-1.30208 -2.91666,-1.30208 -4.42708,-3.59375 -0.57291,-0.57292 -0.88541,-1.40625 -0.3125,-0.78125 0,-1.30208 0.20833,-0.41667 0.67708,-0.72917 0.46875,-0.36458 1.04166,-0.36458 0.36459,0 0.78125,0.26042 0.41667,0.20833 0.88542,0.67708 3.07292,3.80208 7.55208,3.80208 3.48958,0 5.46875,-1.97917 1.97916,-1.97916 1.97916,-5.57291 0,-0.78125 0,-2.39583 -2.91666,3.33333 -7.91666,3.33333 -4.94791,0 -7.96875,-4.01041 -3.07291,-3.95833 -3.07291,-10.83333 z m 4.84375,0.52083 q 0,4.79167 1.92708,7.5 1.97916,2.70833 5.52083,2.70833 4.53125,0 6.66666,-4.11458 0,-4.32292 0,-12.86458 -2.23958,-4.06249 -6.66666,-4.06249 -3.48958,0 -5.46875,2.76041 -1.97916,2.70833 -1.97916,8.07291 z"
       id="text12"
       style="font-size:53.3333px;line-height:0;font-family:'Roboto Round';-inkscape-font-specification:'Roboto Round';fill:#ffffff;stroke:url(#linearGradient25);stroke-width:2;paint-order:stroke fill markers"
       aria-label="of musical hearing" />
  </g>
</svg>
