<?xml version="1.0" encoding="UTF-8" standalone="no"?>
<svg
   version="1.1"
   width="109.92957"
   height="54.672001"
   viewBox="0 0 109.92957 54.672"
   id="svg3"
   sodipodi:docname="play_pressed.svg"
   inkscape:version="1.4.2 (ebf0e940d0, 2025-05-08)"
   xmlns:inkscape="http://www.inkscape.org/namespaces/inkscape"
   xmlns:sodipodi="http://sodipodi.sourceforge.net/DTD/sodipodi-0.dtd"
   xmlns:xlink="http://www.w3.org/1999/xlink"
   xmlns="http://www.w3.org/2000/svg"
   xmlns:svg="http://www.w3.org/2000/svg">
  <defs
     id="defs3">
    <linearGradient
       id="swatch3"
       inkscape:swatch="solid">
      <stop
         style="stop-color:#000000;stop-opacity:1;"
         offset="0"
         id="stop3" />
    </linearGradient>
    <linearGradient
       inkscape:collect="always"
       xlink:href="#swatch3"
       id="linearGradient3"
       x1="0.63780057"
       y1="27.6646"
       x2="109.0639"
       y2="27.6646"
       gradientUnits="userSpaceOnUse"
       gradientTransform="matrix(0.97197121,0,0,0.95096328,1.7517455,1.027982)" />
  </defs>
  <sodipodi:namedview
     id="namedview3"
     pagecolor="#ffffff"
     bordercolor="#000000"
     borderopacity="0.25"
     inkscape:showpageshadow="2"
     inkscape:pageopacity="0.0"
     inkscape:pagecheckerboard="0"
     inkscape:deskcolor="#d1d1d1"
     inkscape:zoom="8.8693147"
     inkscape:cx="89.804007"
     inkscape:cy="27.285084"
     inkscape:window-width="1446"
     inkscape:window-height="1029"
     inkscape:window-x="0"
     inkscape:window-y="0"
     inkscape:window-maximized="0"
     inkscape:current-layer="svg3">
    <inkscape:page
       x="0"
       y="0"
       width="109.92957"
       height="54.672001"
       id="page2"
       margin="0"
       bleed="0" />
  </sodipodi:namedview>
  <rect
     style="display:inline;fill:#a53faa;stroke:url(#linearGradient3);stroke-width:4.34172;paint-order:stroke fill markers;fill-opacity:1"
     id="rect3"
     width="105.38705"
     height="50.189938"
     x="2.3716693"
     y="2.2410321"
     ry="5.9679413" />
  <path
     d="m 72.726128,27.132875 q 0,0.875 0,3.484375 0,1.046875 -0.71875,1.046875 -0.734375,0 -0.734375,-1.046875 0,-2.296875 0,-4.484375 0,-2.1875 0,-4.6875 0,-1.25 0.9375,-1.25 0.9375,0 3.21875,0.01563 1.859375,0 2.921875,0.953125 1.0625,0.953125 1.0625,2.515625 0,1.65625 -1.03125,2.5625 -1.046875,0.890625 -2.96875,0.890625 -0.890625,0 -2.6875,0 z m 0,-1.109375 q 0.6875,0 2.71875,0 1.203125,0 1.828125,-0.625 0.640625,-0.625 0.640625,-1.703125 0,-1.015625 -0.640625,-1.625 -0.640625,-0.609375 -1.765625,-0.625 -0.921875,0 -2.78125,0 0,1.140625 0,4.578125 z m 10.109375,4.671875 q 0,1.125 -0.71875,1.125 -0.71875,0 -0.71875,-1.125 0,-2.484375 0,-9.921875 0,-1.125 0.71875,-1.125 0.71875,0 0.71875,1.125 0,2.484375 0,9.921875 z m 7.40625,0.328125 q 0,-0.328125 0,-0.328125 -0.96875,1.125 -2.5625,1.125 -1.25,0 -2.046875,-0.65625 -0.796875,-0.65625 -0.796875,-1.75 0,-1.3125 1.015625,-2.046875 1,-0.734375 2.8125,-0.734375 0.46875,0 1.40625,0 0,-0.15625 0,-0.65625 0,-0.765625 -0.453125,-1.21875 -0.453125,-0.4375 -1.328125,-0.4375 -0.78125,0 -1.21875,0.21875 -0.4375,0.234375 -0.4375,0.796875 0,0.234375 -0.125,0.46875 -0.109375,0.234375 -0.34375,0.296875 -0.15625,0.04687 -0.375,0 -0.234375,-0.03125 -0.40625,-0.1875 -0.09375,-0.07813 -0.15625,-0.234375 -0.04687,-0.140625 -0.04687,-0.34375 0,-0.640625 0.359375,-1.0625 0.375,-0.4375 1.140625,-0.78125 0.765625,-0.34375 1.6875,-0.34375 1.46875,0 2.296875,0.734375 0.828125,0.734375 0.859375,2.015625 0,1.296875 0,3.890625 0,0.71875 0,0.65625 0,-0.0625 0,0.40625 0,0.96875 -0.640625,0.96875 -0.640625,0 -0.640625,-0.796875 z m -2.34375,-0.53125 q 0.6875,0 1.296875,-0.34375 0.609375,-0.359375 0.875,-0.921875 0,-0.578125 0,-1.734375 -0.28125,0 -1.125,0 -2.65625,0 -2.65625,1.5625 0,0.671875 0.453125,1.0625 0.453125,0.375 1.15625,0.375 z m 8.640625,-1.078125 q 0.4375,-1.3125 1.765625,-5.28125 0.296875,-0.890625 0.9375,-0.890625 0.04687,0 0.09375,0.01563 0.59375,0.0625 0.59375,0.609375 0,0.125 -0.03125,0.265625 -0.796875,2.203125 -1.59375,4.390625 -0.796875,2.171875 -1.625,4.4375 -0.65625,2.0625 -2.375,2.0625 -0.390625,0 -0.484375,0 -0.07813,0 -0.15625,0 -0.8125,0 -0.8125,-0.640625 0,-0.640625 0.8125,-0.640625 0.0625,0 0.828125,-0.07813 0.765625,-0.07813 1.078125,-1.234375 0.04687,-0.3125 0.171875,-0.9375 -0.71875,-1.828125 -2.890625,-7.359375 -0.03125,-0.140625 -0.03125,-0.265625 0,-0.546875 0.59375,-0.609375 0.71875,-0.09375 1.046875,0.875 0.515625,1.328125 2.078125,5.28125 z"
     id="text3"
     style="font-size:16px;line-height:0;font-family:'Roboto Round';-inkscape-font-specification:'Roboto Round';stroke-width:4.516;paint-order:stroke fill markers"
     aria-label="Play" />
</svg>
