<?xml version="1.0" encoding="UTF-8" standalone="no"?>
<svg
   version="1.1"
   width="180.67163"
   height="33.985123"
   viewBox="0 0 180.67162 33.985122"
   id="svg3"
   sodipodi:docname="main_menu.svg"
   inkscape:export-filename="../menubtn/reset.svg"
   inkscape:export-xdpi="96"
   inkscape:export-ydpi="96"
   inkscape:version="1.4.2 (ebf0e940d0, 2025-05-08)"
   xmlns:inkscape="http://www.inkscape.org/namespaces/inkscape"
   xmlns:sodipodi="http://sodipodi.sourceforge.net/DTD/sodipodi-0.dtd"
   xmlns:xlink="http://www.w3.org/1999/xlink"
   xmlns="http://www.w3.org/2000/svg"
   xmlns:svg="http://www.w3.org/2000/svg">
  <defs
     id="defs3">
    <linearGradient
       id="swatch3"
       inkscape:swatch="solid">
      <stop
         style="stop-color:#000000;stop-opacity:1;"
         offset="0"
         id="stop3" />
    </linearGradient>
    <linearGradient
       inkscape:collect="always"
       xlink:href="#swatch3"
       id="linearGradient3"
       x1="0.63780057"
       y1="17.14089"
       x2="109.3828"
       y2="17.14089"
       gradientUnits="userSpaceOnUse"
       gradientTransform="matrix(1.6242951,0,0,0.89864581,0.98286258,1.5889726)" />
  </defs>
  <sodipodi:namedview
     id="namedview3"
     pagecolor="#ffffff"
     bordercolor="#000000"
     borderopacity="0.25"
     inkscape:showpageshadow="2"
     inkscape:pageopacity="0.0"
     inkscape:pagecheckerboard="0"
     inkscape:deskcolor="#d1d1d1"
     inkscape:zoom="7.18984"
     inkscape:cx="67.804012"
     inkscape:cy="16.968389"
     inkscape:window-width="1446"
     inkscape:window-height="1029"
     inkscape:window-x="0"
     inkscape:window-y="0"
     inkscape:window-maximized="1"
     inkscape:current-layer="svg3">
    <inkscape:page
       x="0"
       y="0"
       width="180.67162"
       height="33.985123"
       id="page1"
       margin="0"
       bleed="0" />
  </sodipodi:namedview>
  <rect
     style="display:inline;fill:#ffffff;stroke:url(#linearGradient3);stroke-width:4.03768;paint-order:stroke fill markers"
     id="rect3"
     width="176.63394"
     height="29.947445"
     x="2.0188403"
     y="2.0188401"
     ry="5.6396141" />
  <path
     d="m 17.738155,17.684098 q -1.007813,0 -4.078125,0 0,1.335938 0,5.320313 0,1.570312 -1.078125,1.570312 -1.101563,0 -1.101563,-1.570312 0,-4.59375 0,-13.757813 0,-1.875 1.40625,-1.875 1.40625,0 4.242188,0 2.882812,0 4.429687,1.3125 1.570313,1.3124996 1.570313,3.820313 0,1.59375 -0.84375,2.929687 -0.820313,1.359375 -2.367188,1.945313 0.539063,0.9375 1.570313,2.8125 0.234375,0.46875 0.9375,1.875 0.9375,1.875 -0.164063,2.34375 -1.078125,0.46875 -2.34375,-2.039063 -0.210937,-0.398437 -0.609375,-1.242187 -0.398437,-0.867188 -1.570312,-3.445313 z m -4.078125,-1.875 q 0.9375,0 3.773437,0 1.664063,0 2.554688,-0.914062 0.867187,-0.9375 0.867187,-2.390625 0,-1.59375 -0.820312,-2.414063 -0.820313,-0.84375 -2.601563,-0.84375 -1.265625,0 -3.773437,0 0,1.640625 0,6.5625 z m 17.554687,8.953125 q -2.578125,0 -4.195312,-1.710937 -1.617188,-1.6875 -1.617188,-4.523438 0,-0.117187 0,-0.398437 0,-1.875 0.726563,-3.375 0.726562,-1.476563 2.015625,-2.296875 1.289062,-0.84375 2.8125,-0.84375 2.460937,0 3.843749,1.664062 1.359375,1.6875 1.359375,3.84375 0,0.351563 -0.07031,0.726563 -0.09375,0.375 -0.28125,0.585937 -0.164063,0.1875 -0.609375,0.28125 -0.445313,0.09375 -1.195313,0.09375 -1.617187,0 -6.421874,0 0.04687,1.875 1.101562,3.023438 1.03125,1.148437 2.648438,1.148437 1.242187,-0.09375 1.710937,-0.328125 0.492187,-0.257812 1.078125,-1.03125 0.234375,-0.257812 0.5625,-0.421875 0.351562,-0.164062 0.5625,-0.117187 0.140625,0.04687 0.28125,0.164062 0.164062,0.140625 0.210937,0.351563 0.04687,0.164062 -0.02344,0.445312 -0.07031,0.257813 -0.257813,0.609375 -1.40625,2.132813 -3.609374,2.15625 -0.304688,0 -0.632813,-0.04687 z M 30.886592,13.277848 q -1.3125,0 -2.109375,1.054688 -0.796875,1.054687 -1.007812,2.789062 2.0625,0 6.234374,0 0,-0.07031 0,-0.257812 -0.09375,-1.664063 -0.9375,-2.625 -0.820312,-0.960938 -2.179687,-0.960938 z m 15.257812,7.921875 q 0,-0.867187 -0.65625,-1.359375 -0.679687,-0.492187 -2.320312,-0.84375 -1.640625,-0.351562 -2.601563,-0.84375 -0.984375,-0.492187 -1.453125,-1.171875 -0.445312,-0.679687 -0.445312,-1.617187 0,-1.546875 1.3125,-2.625 1.335937,-1.078125 3.375,-1.078125 2.15625,0 3.492187,1.148437 1.335938,1.125 1.335938,2.859375 0,0.375 -0.1875,0.726563 -0.164063,0.351562 -0.515625,0.445312 -0.234375,0.04687 -0.585938,0 -0.328125,-0.04687 -0.585937,-0.28125 -0.140625,-0.140625 -0.210938,-0.351562 -0.09375,-0.234375 -0.09375,-0.539063 0,-0.890625 -0.75,-1.546875 -0.75,-0.679687 -1.898437,-0.679687 -1.171875,0 -1.851563,0.515625 -0.65625,0.515625 -0.65625,1.335937 0,0.796875 0.609375,1.195313 0.632813,0.398437 2.226563,0.75 1.640625,0.375 2.648437,0.867187 1.007813,0.515625 1.476563,1.21875 0.492187,0.703125 0.492187,1.734375 0,1.6875 -1.359375,2.71875 -1.359375,1.03125 -3.515625,1.03125 -1.523437,0 -2.695312,-0.539062 -1.171875,-0.539063 -1.828125,-1.5 -0.585938,-0.914063 -0.585938,-2.039063 0,-0.375 0.1875,-0.726562 0.164063,-0.351563 0.515625,-0.421875 0.234375,-0.07031 0.5625,-0.02344 0.351563,0.07031 0.609375,0.28125 0.140625,0.140625 0.210938,0.375 0.09375,0.210938 0.09375,0.515625 0.04687,1.078125 0.820312,1.6875 0.773438,0.609375 2.109375,0.609375 1.21875,0 1.96875,-0.492187 0.75,-0.492188 0.75,-1.335938 z m 10.171875,3.5625 q -2.578125,0 -4.195312,-1.710937 -1.617188,-1.6875 -1.617188,-4.523438 0,-0.117187 0,-0.398437 0,-1.875 0.726563,-3.375 0.726562,-1.476563 2.015625,-2.296875 1.289062,-0.84375 2.8125,-0.84375 2.460937,0 3.84375,1.664062 1.359375,1.6875 1.359375,3.84375 0,0.351563 -0.07031,0.726563 -0.09375,0.375 -0.28125,0.585937 -0.164062,0.1875 -0.609375,0.28125 -0.445312,0.09375 -1.195312,0.09375 -1.617188,0 -6.421875,0 0.04687,1.875 1.101562,3.023438 1.03125,1.148437 2.648438,1.148437 1.242187,-0.09375 1.710937,-0.328125 0.492188,-0.257812 1.078125,-1.03125 0.234375,-0.257812 0.5625,-0.421875 0.351563,-0.164062 0.5625,-0.117187 0.140625,0.04687 0.28125,0.164062 0.164063,0.140625 0.210938,0.351563 0.04687,0.164062 -0.02344,0.445312 -0.07031,0.257813 -0.257812,0.609375 -1.40625,2.132813 -3.609375,2.15625 -0.304688,0 -0.632813,-0.04687 z M 55.988154,13.277848 q -1.3125,0 -2.109375,1.054688 -0.796875,1.054687 -1.007812,2.789062 2.0625,0 6.234375,0 0,-0.07031 0,-0.257812 -0.09375,-1.664063 -0.9375,-2.625 -0.820313,-0.960938 -2.179688,-0.960938 z m 10.804688,-3.375 q 0,0.492188 0,1.921875 0.421875,0 1.734375,0 0.65625,0 0.65625,0.84375 0,0.84375 -0.703125,0.84375 -0.421875,0 -1.6875,0 0,1.992188 0.02344,7.921875 0,0.75 0.210938,1.101563 0.210937,0.351562 0.960937,0.351562 0.492188,0 1.195313,-0.234375 0.210937,-0.07031 0.421875,-0.04687 0.210937,0.02344 0.328125,0.210938 0.07031,0.117187 0.09375,0.375 0,0.04687 0,0.09375 0,0.210937 -0.09375,0.445312 -0.04687,0.140625 -0.1875,0.304688 -0.117188,0.164062 -0.304688,0.28125 -0.726562,0.492187 -1.875,0.492187 -1.453125,0 -2.179687,-0.890625 -0.75,-0.867187 -0.75,-2.484375 0,-2.648437 0,-7.921875 -0.375,0 -1.453125,0 -0.960938,0 -0.960938,-0.84375 0,-0.84375 0.960938,-0.84375 0.351562,0 1.453125,0 0,-0.46875 0,-1.921875 0,-1.1953125 1.078125,-1.1953125 1.078125,0 1.078125,1.1953125 z m 21.5625,8.460938 q 0,2.90625 -1.3125,4.664062 -1.335938,1.78125 -3.609375,1.78125 -2.25,0.257813 -3.585938,-1.195312 0,1.59375 0,4.804687 0,1.195313 -1.078125,1.195313 -1.078125,0 -1.078125,-1.195313 0,-3.84375 0,-15.375 0,-1.21875 0.960938,-1.21875 0.960937,0 0.960937,1.21875 0,0.04687 0,0.234375 0.890625,-1.453125 3.351563,-1.453125 2.296875,0 3.84375,1.640625 1.546875,1.640625 1.546875,4.710938 0,0.07031 0,0.1875 z m -2.15625,-0.234375 q 0,-2.15625 -0.914063,-3.398438 -0.9375,-1.242187 -2.53125,-1.242187 -1.96875,0 -2.929687,1.757812 0,2.015625 0,6.046875 0.960937,1.734375 2.953125,1.734375 1.570312,0 2.484375,-1.242187 0.9375,-1.21875 0.9375,-3.65625 z m 10.96875,-4.382813 q -0.515625,-0.02344 -0.984375,0 -2.132813,0 -2.882813,1.828125 0,2.601563 0.02344,7.78125 0,1.453125 -1.078125,1.453125 -1.078125,0 -1.078125,-1.453125 0,-2.578125 0,-10.3125 0,-1.21875 1.078125,-1.21875 1.078125,0 1.078125,1.21875 0,0.04687 0,0.234375 1.03125,-1.617187 2.8125,-1.617187 0.07031,0 0.164062,0 0.773438,0 1.101563,0.164062 0.304687,0.09375 0.5625,0.304688 0.257812,0.234375 0.28125,0.5625 0.02344,0.04687 0.02344,0.09375 0,0.1875 -0.07031,0.445312 -0.09375,0.304688 -0.328125,0.46875 -0.117188,0.07031 -0.304688,0.09375 -0.1875,0.02344 -0.398437,-0.04687 z m 1.5,4.359375 q 0,-1.851562 0.75,-3.351562 0.726558,-1.476563 2.039058,-2.296875 1.3125,-0.796875 2.97657,-0.796875 2.57812,0 4.19531,1.78125 1.59375,1.804687 1.59375,4.78125 0,0.04687 0,0.140625 0,1.851562 -0.70313,3.328125 -0.72656,1.476562 -2.03906,2.296875 -1.3125,0.820312 -3.02344,0.820312 -2.57812,0 -4.17187,-1.804687 -1.617188,-1.78125 -1.617188,-4.734375 0,-0.04687 0,-0.164063 z m 2.203128,0.257813 q 0,2.109375 0.96093,3.398437 0.98438,1.265625 2.625,1.265625 1.66407,0 2.625,-1.289062 0.96094,-1.289063 0.96094,-3.632813 0,-2.085937 -0.98437,-3.375 -0.98438,-1.289062 -2.625,-1.289062 -1.59375,0 -2.57813,1.265625 -0.98437,1.289062 -0.98437,3.65625 z m 11.55468,-0.234375 q 0,-2.976563 1.35938,-4.734375 1.38281,-1.734375 3.63281,-1.734375 2.4375,-0.02344 3.72656,1.617187 0,-0.164062 0,-0.492187 0,-1.242188 0.96094,-1.242188 0.96094,0 0.96094,1.195313 0,2.882812 0,11.460937 0,2.460938 -1.42969,3.914063 -1.42969,1.453125 -3.86719,1.453125 -1.38281,0 -2.69531,-0.585938 -1.3125,-0.585937 -1.99219,-1.617187 -0.25781,-0.257813 -0.39843,-0.632813 -0.14063,-0.351562 0,-0.585937 0.0937,-0.1875 0.30468,-0.328125 0.21094,-0.164063 0.46875,-0.164063 0.16407,0 0.35157,0.117188 0.1875,0.09375 0.39843,0.304687 1.38282,1.710938 3.39844,1.710938 1.57031,0 2.46094,-0.890625 0.89062,-0.890625 0.89062,-2.507813 0,-0.351562 0,-1.078125 -1.3125,1.5 -3.5625,1.5 -2.22656,0 -3.58593,-1.804687 -1.38282,-1.78125 -1.38282,-4.875 z m 2.17969,0.234375 q 0,2.15625 0.86719,3.375 0.89062,1.21875 2.48437,1.21875 2.03907,0 3,-1.851563 0,-1.945312 0,-5.789062 -1.00781,-1.828125 -3,-1.828125 -1.57031,0 -2.46093,1.242187 -0.89063,1.21875 -0.89063,3.632813 z m 17.85937,-4.617188 q -0.51562,-0.02344 -0.98437,0 -2.13281,0 -2.88281,1.828125 0,2.601563 0.0234,7.78125 0,1.453125 -1.07812,1.453125 -1.07813,0 -1.07813,-1.453125 0,-2.578125 0,-10.3125 0,-1.21875 1.07813,-1.21875 1.07812,0 1.07812,1.21875 0,0.04687 0,0.234375 1.03125,-1.617187 2.8125,-1.617187 0.0703,0 0.16407,0 0.77343,0 1.10156,0.164062 0.30469,0.09375 0.5625,0.304688 0.25781,0.234375 0.28125,0.5625 0.0234,0.04687 0.0234,0.09375 0,0.1875 -0.0703,0.445312 -0.0937,0.304688 -0.32812,0.46875 -0.11719,0.07031 -0.30469,0.09375 -0.1875,0.02344 -0.39844,-0.04687 z m 7.26563,11.015625 q -2.57813,0 -4.19531,-1.710937 -1.61719,-1.6875 -1.61719,-4.523438 0,-0.117187 0,-0.398437 0,-1.875 0.72656,-3.375 0.72656,-1.476563 2.01563,-2.296875 1.28906,-0.84375 2.8125,-0.84375 2.46093,0 3.84375,1.664062 1.35937,1.6875 1.35937,3.84375 0,0.351563 -0.0703,0.726563 -0.0937,0.375 -0.28125,0.585937 -0.16406,0.1875 -0.60938,0.28125 -0.44531,0.09375 -1.19531,0.09375 -1.61719,0 -6.42187,0 0.0469,1.875 1.10156,3.023438 1.03125,1.148437 2.64844,1.148437 1.24218,-0.09375 1.71093,-0.328125 0.49219,-0.257812 1.07813,-1.03125 0.23437,-0.257812 0.5625,-0.421875 0.35156,-0.164062 0.5625,-0.117187 0.14062,0.04687 0.28125,0.164062 0.16406,0.140625 0.21094,0.351563 0.0469,0.164062 -0.0234,0.445312 -0.0703,0.257813 -0.25781,0.609375 -1.40625,2.132813 -3.60938,2.15625 -0.30469,0 -0.63281,-0.04687 z m -0.32813,-11.484375 q -1.3125,0 -2.10937,1.054688 -0.79688,1.054687 -1.00781,2.789062 2.0625,0 6.23437,0 0,-0.07031 0,-0.257812 -0.0937,-1.664063 -0.9375,-2.625 -0.82031,-0.960938 -2.17969,-0.960938 z m 15.25782,7.921875 q 0,-0.867187 -0.65625,-1.359375 -0.67969,-0.492187 -2.32032,-0.84375 -1.64062,-0.351562 -2.60156,-0.84375 -0.98437,-0.492187 -1.45312,-1.171875 -0.44532,-0.679687 -0.44532,-1.617187 0,-1.546875 1.3125,-2.625 1.33594,-1.078125 3.375,-1.078125 2.15625,0 3.49219,1.148437 1.33594,1.125 1.33594,2.859375 0,0.375 -0.1875,0.726563 -0.16406,0.351562 -0.51563,0.445312 -0.23437,0.04687 -0.58593,0 -0.32813,-0.04687 -0.58594,-0.28125 -0.14063,-0.140625 -0.21094,-0.351562 -0.0937,-0.234375 -0.0937,-0.539063 0,-0.890625 -0.75,-1.546875 -0.75,-0.679687 -1.89844,-0.679687 -1.17187,0 -1.85156,0.515625 -0.65625,0.515625 -0.65625,1.335937 0,0.796875 0.60938,1.195313 0.63281,0.398437 2.22656,0.75 1.64062,0.375 2.64844,0.867187 1.00781,0.515625 1.47656,1.21875 0.49219,0.703125 0.49219,1.734375 0,1.6875 -1.35938,2.71875 -1.35937,1.03125 -3.51562,1.03125 -1.52344,0 -2.69532,-0.539062 -1.17187,-0.539063 -1.82812,-1.5 -0.58594,-0.914063 -0.58594,-2.039063 0,-0.375 0.1875,-0.726562 0.16406,-0.351563 0.51563,-0.421875 0.23437,-0.07031 0.5625,-0.02344 0.35156,0.07031 0.60937,0.28125 0.14063,0.140625 0.21094,0.375 0.0937,0.210938 0.0937,0.515625 0.0469,1.078125 0.82031,1.6875 0.77344,0.609375 2.10938,0.609375 1.21875,0 1.96875,-0.492187 0.75,-0.492188 0.75,-1.335938 z m 12.375,0 q 0,-0.867187 -0.65625,-1.359375 -0.67969,-0.492187 -2.32032,-0.84375 -1.64062,-0.351562 -2.60156,-0.84375 -0.98437,-0.492187 -1.45312,-1.171875 -0.44532,-0.679687 -0.44532,-1.617187 0,-1.546875 1.3125,-2.625 1.33594,-1.078125 3.375,-1.078125 2.15625,0 3.49219,1.148437 1.33594,1.125 1.33594,2.859375 0,0.375 -0.1875,0.726563 -0.16406,0.351562 -0.51563,0.445312 -0.23437,0.04687 -0.58593,0 -0.32813,-0.04687 -0.58594,-0.28125 -0.14063,-0.140625 -0.21094,-0.351562 -0.0937,-0.234375 -0.0937,-0.539063 0,-0.890625 -0.75,-1.546875 -0.75,-0.679687 -1.89844,-0.679687 -1.17187,0 -1.85156,0.515625 -0.65625,0.515625 -0.65625,1.335937 0,0.796875 0.60938,1.195313 0.63281,0.398437 2.22656,0.75 1.64062,0.375 2.64844,0.867187 1.00781,0.515625 1.47656,1.21875 0.49219,0.703125 0.49219,1.734375 0,1.6875 -1.35938,2.71875 -1.35937,1.03125 -3.51562,1.03125 -1.52344,0 -2.69532,-0.539062 -1.17187,-0.539063 -1.82812,-1.5 -0.58594,-0.914063 -0.58594,-2.039063 0,-0.375 0.1875,-0.726562 0.16406,-0.351563 0.51563,-0.421875 0.23437,-0.07031 0.5625,-0.02344 0.35156,0.07031 0.60937,0.28125 0.14063,0.140625 0.21094,0.375 0.0937,0.210938 0.0937,0.515625 0.0469,1.078125 0.82031,1.6875 0.77344,0.609375 2.10938,0.609375 1.21875,0 1.96875,-0.492187 0.75,-0.492188 0.75,-1.335938 z"
     id="text1"
     style="font-size:24px;line-height:0;font-family:'Roboto Round';-inkscape-font-specification:'Roboto Round';stroke-width:3.342;paint-order:stroke fill markers"
     aria-label="Reset progress" />
</svg>
