<?xml version="1.0" encoding="UTF-8" standalone="no"?>
<svg
   version="1.1"
   width="49.440659"
   height="140.09723"
   id="svg3"
   sodipodi:docname="c4_pressed.svg"
   inkscape:version="1.4.2 (ebf0e940d0, 2025-05-08)"
   inkscape:export-filename="c4_pressed.svg"
   inkscape:export-xdpi="110.68102"
   inkscape:export-ydpi="110.68102"
   xmlns:inkscape="http://www.inkscape.org/namespaces/inkscape"
   xmlns:sodipodi="http://sodipodi.sourceforge.net/DTD/sodipodi-0.dtd"
   xmlns:xlink="http://www.w3.org/1999/xlink"
   xmlns="http://www.w3.org/2000/svg"
   xmlns:svg="http://www.w3.org/2000/svg">
  <defs
     id="defs3">
    <linearGradient
       id="swatch5"
       inkscape:swatch="solid">
      <stop
         style="stop-color:#000000;stop-opacity:1;"
         offset="0"
         id="stop5" />
    </linearGradient>
    <linearGradient
       id="swatch4"
       inkscape:swatch="solid">
      <stop
         style="stop-color:#000000;stop-opacity:1;"
         offset="0"
         id="stop4" />
    </linearGradient>
    <linearGradient
       id="swatch3"
       inkscape:swatch="solid">
      <stop
         style="stop-color:#000000;stop-opacity:1;"
         offset="0"
         id="stop3" />
    </linearGradient>
    <linearGradient
       inkscape:collect="always"
       xlink:href="#swatch5"
       id="linearGradient5"
       x1="15.79076"
       y1="58.512028"
       x2="32.9897"
       y2="58.512028"
       gradientUnits="userSpaceOnUse"
       gradientTransform="matrix(2.6711331,0,0,4.5367795,-40.429229,-195.40753)" />
  </defs>
  <sodipodi:namedview
     id="namedview3"
     pagecolor="#ffffff"
     bordercolor="#000000"
     borderopacity="0.25"
     inkscape:showpageshadow="2"
     inkscape:pageopacity="0.0"
     inkscape:pagecheckerboard="0"
     inkscape:deskcolor="#d1d1d1"
     inkscape:zoom="4"
     inkscape:cx="-3.625"
     inkscape:cy="78.25"
     inkscape:window-width="1904"
     inkscape:window-height="1029"
     inkscape:window-x="0"
     inkscape:window-y="0"
     inkscape:window-maximized="0"
     inkscape:current-layer="svg3">
    <inkscape:page
       x="0"
       y="0"
       width="49.440659"
       height="140.09723"
       id="page2"
       margin="0"
       bleed="0" />
  </sodipodi:namedview>
  <rect
     style="fill:#f88a22;fill-opacity:1;stroke:url(#linearGradient5);stroke-width:3.5;stroke-dasharray:none;paint-order:stroke fill markers"
     id="rect4"
     width="45.940659"
     height="136.59723"
     x="1.75"
     y="1.75"
     ry="6.2756801" />
  <path
     d="m 6.9897723,101.03452 q 0,-5.319735 0,-21.205046 0,-2.955407 1.9700611,-2.955407 1.9700616,0 4.6296456,0 3.119265,0 5.549008,1.551587 2.429743,1.588534 3.743118,4.43311 1.313375,2.881524 1.313375,6.575783 0,0.591081 0,1.736301 0,3.805085 -1.280541,6.649666 -1.313374,2.881526 -3.743118,4.396166 -2.364074,1.7363 -5.581842,1.77324 -2.659584,0 -4.596811,0.037 0,0 -0.032835,0 -1.9043932,0 -1.9700606,-2.99235 z M 10.076202,79.829474 q 0,5.282789 0,21.057276 0.820859,0 3.316271,0 3.644615,0 5.680345,-2.549039 2.002897,-2.549039 2.002897,-7.240747 0,-0.517198 0,-1.588534 0,-4.580881 -1.904394,-7.092977 -1.904393,-2.549036 -5.41767,-2.585979 -1.247706,0 -3.677449,0 z m 30.273285,14.998689 q 0.492516,0 1.970063,0 1.28054,0 1.28054,1.440763 0,1.477704 -1.28054,1.477704 -0.492516,0 -1.970063,0 0,1.182163 0,4.76559 0,1.84713 -1.313374,1.84713 -1.28054,0 -1.28054,-1.84713 0,-1.18216 0,-4.76559 -2.134234,0 -8.504101,0 -1.937228,0 -2.265571,-1.108279 -0.0985,-0.258594 -0.0985,-0.554138 0,-0.997449 0.755191,-2.364326 2.265571,-3.657315 9.127953,-14.666208 1.313375,-1.773245 2.199903,-1.773245 0.197005,0 0.394012,0.11084 0.985031,0.554141 0.985031,2.733753 0,3.694259 0,14.703149 z m -10.112984,0 q 1.871559,0 7.51907,0 0,-3.214004 0,-12.856021 -0.0985,0.147755 -0.361178,0.517198 -1.773056,3.103178 -7.157892,12.338823 z"
     id="text5"
     style="line-height:0;font-family:'Roboto Round';-inkscape-font-specification:'Roboto Round';white-space:pre;inline-size:27.9084;fill:#ffffff;stroke-width:10.4017;paint-order:stroke fill markers"
     aria-label="D4" />
</svg>
