<?xml version="1.0" encoding="UTF-8" standalone="no"?>
<svg
   version="1.1"
   width="49.440659"
   height="140.09723"
   id="svg3"
   sodipodi:docname="c4_pressed.svg"
   inkscape:version="1.4.2 (ebf0e940d0, 2025-05-08)"
   inkscape:export-filename="c4_pressed.svg"
   inkscape:export-xdpi="110.68102"
   inkscape:export-ydpi="110.68102"
   xmlns:inkscape="http://www.inkscape.org/namespaces/inkscape"
   xmlns:sodipodi="http://sodipodi.sourceforge.net/DTD/sodipodi-0.dtd"
   xmlns:xlink="http://www.w3.org/1999/xlink"
   xmlns="http://www.w3.org/2000/svg"
   xmlns:svg="http://www.w3.org/2000/svg">
  <defs
     id="defs3">
    <linearGradient
       id="swatch5"
       inkscape:swatch="solid">
      <stop
         style="stop-color:#000000;stop-opacity:1;"
         offset="0"
         id="stop5" />
    </linearGradient>
    <linearGradient
       id="swatch4"
       inkscape:swatch="solid">
      <stop
         style="stop-color:#000000;stop-opacity:1;"
         offset="0"
         id="stop4" />
    </linearGradient>
    <linearGradient
       id="swatch3"
       inkscape:swatch="solid">
      <stop
         style="stop-color:#000000;stop-opacity:1;"
         offset="0"
         id="stop3" />
    </linearGradient>
    <linearGradient
       inkscape:collect="always"
       xlink:href="#swatch5"
       id="linearGradient5"
       x1="15.79076"
       y1="58.512028"
       x2="32.9897"
       y2="58.512028"
       gradientUnits="userSpaceOnUse"
       gradientTransform="matrix(2.6711331,0,0,4.5367795,-40.429229,-195.40753)" />
  </defs>
  <sodipodi:namedview
     id="namedview3"
     pagecolor="#ffffff"
     bordercolor="#000000"
     borderopacity="0.25"
     inkscape:showpageshadow="2"
     inkscape:pageopacity="0.0"
     inkscape:pagecheckerboard="0"
     inkscape:deskcolor="#d1d1d1"
     inkscape:zoom="4"
     inkscape:cx="-3.625"
     inkscape:cy="78.25"
     inkscape:window-width="1904"
     inkscape:window-height="1029"
     inkscape:window-x="0"
     inkscape:window-y="0"
     inkscape:window-maximized="0"
     inkscape:current-layer="svg3">
    <inkscape:page
       x="0"
       y="0"
       width="49.440659"
       height="140.09723"
       id="page2"
       margin="0"
       bleed="0" />
  </sodipodi:namedview>
  <rect
     style="fill:#f88a22;fill-opacity:1;stroke:url(#linearGradient5);stroke-width:3.5;stroke-dasharray:none;paint-order:stroke fill markers"
     id="rect4"
     width="45.940659"
     height="136.59723"
     x="1.75"
     y="1.75"
     ry="6.2756801" />
  <path
     d="m 25.284566,118.90758 q 0,2.36742 0,9.36041 3.022713,0 12.090841,0 1.894235,0.0728 1.934535,1.63898 0,0.0364 0,0.0728 0,1.52972 -1.934535,1.56614 -8.141164,0 -24.423497,0 -2.942106,0 -2.942106,-1.78467 0,-1.78467 -0.040307,-12.5291 0,-1.01982 1.491205,-1.01982 1.491204,0 1.491204,1.01982 0,3.6786 0,11.0358 2.337561,0 9.350251,0 0,-2.33099 0,-9.3604 0.04031,-1.01981 1.491204,-1.05623 1.450901,0 1.491202,1.05623 z m 5.602092,-17.51889 q 0,1.05623 0,4.33419 1.813624,0.25496 7.214201,1.09266 1.612113,0.3278 1.612113,1.78467 0,1.45687 -1.612113,1.09265 -1.773323,-0.25495 -7.214201,-1.09265 0,0.72843 0,2.91374 0,1.42045 -1.370297,1.42045 -1.410597,0 -1.410597,-1.42045 0,-0.8377 0,-3.27796 -1.692719,-0.36422 -6.811175,-1.42045 0,0.80128 0,3.24154 0,1.45687 -1.410597,1.45687 -1.370297,0 -1.370297,-1.45687 0,-0.91055 0,-3.60576 -1.73302,-0.29137 -6.811171,-1.09265 -1.612112,-0.36422 -1.612112,-1.82109 0,-1.45688 1.612112,-1.09266 1.692716,0.29138 6.811171,1.09266 0,-1.1655 0,-4.698418 -1.73302,-0.254952 -6.811171,-1.092654 -1.612112,-0.364218 -1.612112,-1.60256 0,-1.274763 1.612112,-0.910545 1.692716,0.254952 6.811171,1.056233 0,-0.619171 0,-2.513105 0,-1.456873 1.370297,-1.456873 1.410597,0 1.410597,1.456873 0,0.728436 0,2.877323 1.69272,0.291374 6.811175,1.092654 0,-0.546327 0,-2.148887 0,-1.456872 1.410597,-1.456872 1.370297,0 1.370297,1.456872 0,0.692015 0,2.877323 1.813624,0.364218 7.214201,1.456873 1.612113,0.364213 1.612113,1.784673 0,1.45687 -1.612113,1.09265 -1.773323,-0.36422 -7.214201,-1.42045 z m -2.780894,3.96998 q 0,-1.1655 0,-4.69842 -1.692719,-0.29137 -6.811175,-1.092651 0,1.165501 0,4.698411 1.69272,0.25495 6.811175,1.09266 z m 1.209082,-29.137452 q 0,-0.546327 0,-2.185309 0,-1.42045 1.571812,-1.42045 1.612112,0 1.612112,1.42045 0,0.546328 0,2.185309 1.28969,0 5.19906,0 2.015142,0 2.015142,1.456872 0,1.420451 -2.015142,1.420451 -1.28969,0 -5.19906,0 0,2.367418 0,9.433249 0,2.148887 -1.209085,2.513105 -0.282116,0.109264 -0.604542,0.109264 -1.088174,0 -2.579379,-0.837701 -3.989977,-2.513105 -16.000214,-10.125263 -1.934535,-1.456873 -1.934535,-2.440262 0,-0.218529 0.120922,-0.437062 0.604544,-1.092654 2.982409,-1.092654 4.03028,0 16.040514,0 z m 0,11.217918 q 0,-2.076043 0,-8.340595 -3.506343,0 -14.025375,0 0.161211,0.109265 0.564241,0.40064 3.385435,1.966778 13.461134,7.939955 z"
     id="text5"
     style="line-height:0;font-family:'Roboto Round';-inkscape-font-specification:'Roboto Round';white-space:pre;inline-size:27.9084;fill:#ffffff;stroke-width:11.4426;paint-order:stroke fill markers"
     aria-label="F#4" />
</svg>
