<?xml version="1.0" encoding="UTF-8" standalone="no"?>
<svg
   version="1.1"
   width="49.440659"
   height="140.09723"
   id="svg3"
   sodipodi:docname="c4_pressed.svg"
   inkscape:version="1.4.2 (ebf0e940d0, 2025-05-08)"
   inkscape:export-filename="c4_pressed.svg"
   inkscape:export-xdpi="110.68102"
   inkscape:export-ydpi="110.68102"
   xmlns:inkscape="http://www.inkscape.org/namespaces/inkscape"
   xmlns:sodipodi="http://sodipodi.sourceforge.net/DTD/sodipodi-0.dtd"
   xmlns:xlink="http://www.w3.org/1999/xlink"
   xmlns="http://www.w3.org/2000/svg"
   xmlns:svg="http://www.w3.org/2000/svg">
  <defs
     id="defs3">
    <linearGradient
       id="swatch5"
       inkscape:swatch="solid">
      <stop
         style="stop-color:#000000;stop-opacity:1;"
         offset="0"
         id="stop5" />
    </linearGradient>
    <linearGradient
       id="swatch4"
       inkscape:swatch="solid">
      <stop
         style="stop-color:#000000;stop-opacity:1;"
         offset="0"
         id="stop4" />
    </linearGradient>
    <linearGradient
       id="swatch3"
       inkscape:swatch="solid">
      <stop
         style="stop-color:#000000;stop-opacity:1;"
         offset="0"
         id="stop3" />
    </linearGradient>
    <linearGradient
       inkscape:collect="always"
       xlink:href="#swatch5"
       id="linearGradient5"
       x1="15.79076"
       y1="58.512028"
       x2="32.9897"
       y2="58.512028"
       gradientUnits="userSpaceOnUse"
       gradientTransform="matrix(2.6711331,0,0,4.5367795,-40.429229,-195.40753)" />
  </defs>
  <sodipodi:namedview
     id="namedview3"
     pagecolor="#ffffff"
     bordercolor="#000000"
     borderopacity="0.25"
     inkscape:showpageshadow="2"
     inkscape:pageopacity="0.0"
     inkscape:pagecheckerboard="0"
     inkscape:deskcolor="#d1d1d1"
     inkscape:zoom="4"
     inkscape:cx="-3.625"
     inkscape:cy="78.25"
     inkscape:window-width="1904"
     inkscape:window-height="1029"
     inkscape:window-x="0"
     inkscape:window-y="0"
     inkscape:window-maximized="0"
     inkscape:current-layer="svg3">
    <inkscape:page
       x="0"
       y="0"
       width="49.440659"
       height="140.09723"
       id="page2"
       margin="0"
       bleed="0" />
  </sodipodi:namedview>
  <rect
     style="fill:#f88a22;fill-opacity:1;stroke:url(#linearGradient5);stroke-width:3.5;stroke-dasharray:none;paint-order:stroke fill markers"
     id="rect4"
     width="45.940659"
     height="136.59723"
     x="1.75"
     y="1.75"
     ry="6.2756801" />
  <path
     d="m 15.526707,103.98992 q -2.85659,0 -5.18783,-1.51464 -2.3312401,-1.51465 -3.5461115,-4.248399 -1.1820372,-2.770693 -1.2148723,-6.428009 0,-0.775795 0,-2.290442 0,-5.910814 2.4297437,-9.161762 2.4625771,-3.250947 6.8952171,-3.250947 3.644614,0 5.549008,2.179615 1.904393,2.179612 2.495412,4.580881 0.426846,1.884071 -0.689522,2.364325 -1.149203,0.443311 -1.773056,-1.219106 -1.80589,-5.171962 -5.549008,-5.061135 -3.08643,0 -4.66248,2.438212 -1.6088838,2.438209 -1.6088838,7.056034 0,0.701908 0,2.105728 0,4.433111 1.9043928,6.982147 1.904394,2.585978 4.95799,2.585978 3.644615,-0.0739 4.859486,-2.179607 1.247706,-2.142672 0.952197,-5.282793 -1.740222,0 -5.253499,0 -1.740221,0 -1.740221,-1.477703 0,-1.514644 1.740221,-1.514644 5.253499,0 6.566873,0 1.313375,0 1.313375,2.992347 -0.0985,1.034393 -0.197005,2.216556 -0.0985,1.219106 -0.361178,2.438212 -0.492515,2.216552 -2.134234,3.952852 -1.641718,1.7363 -5.746015,1.7363 z m 25.085455,-9.161757 q 0.492516,0 1.970062,0 1.280541,0 1.280541,1.440763 0,1.477704 -1.280541,1.477704 -0.492515,0 -1.970062,0 0,1.182163 0,4.76559 0,1.84713 -1.313374,1.84713 -1.28054,0 -1.28054,-1.84713 0,-1.18216 0,-4.76559 -2.134234,0 -8.504101,0 -1.937228,0 -2.265572,-1.108279 -0.0985,-0.258594 -0.0985,-0.554138 0,-0.997449 0.75519,-2.364326 2.265572,-3.657315 9.127954,-14.666208 1.313375,-1.773245 2.199903,-1.773245 0.197004,0 0.394012,0.11084 0.985031,0.554141 0.985031,2.733753 0,3.694259 0,14.703149 z m -10.112984,0 q 1.871559,0 7.51907,0 0,-3.214004 0,-12.856021 -0.0985,0.147771 -0.361178,0.517198 -1.773056,3.103178 -7.157892,12.338823 z"
     id="text5"
     style="line-height:0;font-family:'Roboto Round';-inkscape-font-specification:'Roboto Round';white-space:pre;inline-size:27.9084;fill:#ffffff;stroke-width:10.4017;paint-order:stroke fill markers"
     aria-label="G4" />
</svg>
