<?xml version="1.0" encoding="UTF-8" standalone="no"?>
<svg
   version="1.1"
   width="49.440659"
   height="140.09723"
   id="svg3"
   sodipodi:docname="c4_pressed.svg"
   inkscape:version="1.4.2 (ebf0e940d0, 2025-05-08)"
   inkscape:export-filename="c4_pressed.svg"
   inkscape:export-xdpi="110.68102"
   inkscape:export-ydpi="110.68102"
   xmlns:inkscape="http://www.inkscape.org/namespaces/inkscape"
   xmlns:sodipodi="http://sodipodi.sourceforge.net/DTD/sodipodi-0.dtd"
   xmlns:xlink="http://www.w3.org/1999/xlink"
   xmlns="http://www.w3.org/2000/svg"
   xmlns:svg="http://www.w3.org/2000/svg">
  <defs
     id="defs3">
    <linearGradient
       id="swatch5"
       inkscape:swatch="solid">
      <stop
         style="stop-color:#000000;stop-opacity:1;"
         offset="0"
         id="stop5" />
    </linearGradient>
    <linearGradient
       id="swatch4"
       inkscape:swatch="solid">
      <stop
         style="stop-color:#000000;stop-opacity:1;"
         offset="0"
         id="stop4" />
    </linearGradient>
    <linearGradient
       id="swatch3"
       inkscape:swatch="solid">
      <stop
         style="stop-color:#000000;stop-opacity:1;"
         offset="0"
         id="stop3" />
    </linearGradient>
    <linearGradient
       inkscape:collect="always"
       xlink:href="#swatch5"
       id="linearGradient5"
       x1="15.79076"
       y1="58.512028"
       x2="32.9897"
       y2="58.512028"
       gradientUnits="userSpaceOnUse"
       gradientTransform="matrix(2.6711331,0,0,4.5367795,-40.429229,-195.40753)" />
  </defs>
  <sodipodi:namedview
     id="namedview3"
     pagecolor="#ffffff"
     bordercolor="#000000"
     borderopacity="0.25"
     inkscape:showpageshadow="2"
     inkscape:pageopacity="0.0"
     inkscape:pagecheckerboard="0"
     inkscape:deskcolor="#d1d1d1"
     inkscape:zoom="4"
     inkscape:cx="-3.625"
     inkscape:cy="78.25"
     inkscape:window-width="1904"
     inkscape:window-height="1029"
     inkscape:window-x="0"
     inkscape:window-y="0"
     inkscape:window-maximized="0"
     inkscape:current-layer="svg3">
    <inkscape:page
       x="0"
       y="0"
       width="49.440659"
       height="140.09723"
       id="page2"
       margin="0"
       bleed="0" />
  </sodipodi:namedview>
  <rect
     style="fill:#f88a22;fill-opacity:1;stroke:url(#linearGradient5);stroke-width:3.5;stroke-dasharray:none;paint-order:stroke fill markers"
     id="rect4"
     width="45.940659"
     height="136.59723"
     x="1.75"
     y="1.75"
     ry="6.2756801" />
  <path
     d="m 29.79848,112.27881 q 4.554218,0.47348 7.052993,3.13228 2.458469,2.65879 2.458469,6.92014 0,4.62557 -3.667555,7.32078 -3.62725,2.69522 -9.753276,2.69522 -0.926967,0 -2.780895,0 -4.03028,0 -7.052989,-1.31119 -3.063014,-1.27476 -4.675126,-3.6786 -1.6524156,-2.36742 -1.6524156,-5.49969 0,-4.15209 2.5390756,-6.66519 2.57938,-2.47669 7.133597,-2.91375 2.13605,0 2.13605,1.45687 0,1.45688 -2.13605,1.96678 -3.425739,0.43706 -4.997547,1.96678 -1.571809,1.49329 -1.571809,4.18851 0,3.27796 2.700287,5.17189 2.700287,1.85752 7.657531,1.85752 0.926967,0 2.821198,0 4.675125,0 7.375412,-1.67541 2.700287,-1.6754 2.700287,-4.88052 0,-2.8409 -1.370293,-4.47988 -1.370297,-1.60256 -4.916944,-2.11247 -2.337561,-0.54632 -2.337561,-2.0032 0,-1.45687 2.337561,-1.45687 z M 29.314846,94.432123 q 0,-0.546327 0,-2.185308 0,-1.420451 1.571812,-1.420451 1.612112,0 1.612112,1.420451 0,0.546327 0,2.185308 1.28969,0 5.19906,0 2.015142,0 2.015142,1.456873 0,1.42045 -2.015142,1.42045 -1.28969,0 -5.19906,0 0,2.367418 0,9.433254 0,2.14888 -1.209085,2.5131 -0.282116,0.10926 -0.604542,0.10926 -1.088174,0 -2.579379,-0.8377 -3.989977,-2.5131 -16.000214,-10.12526 -1.934535,-1.456872 -1.934535,-2.440261 0,-0.218531 0.120922,-0.437062 0.604531,-1.092654 2.982395,-1.092654 4.030281,0 16.040514,0 z m 0,11.217917 q 0,-2.07604 0,-8.340594 -3.506343,0 -14.025375,0 0.161211,0.109266 0.564241,0.40064 3.385435,1.966778 13.461134,7.939954 z"
     id="text5"
     style="line-height:0;font-family:'Roboto Round';-inkscape-font-specification:'Roboto Round';white-space:pre;inline-size:22.1169;fill:#ffffff;stroke-width:11.4426;paint-order:stroke fill markers"
     aria-label="C4" />
</svg>
