<svg version="1.1" xmlns="http://www.w3.org/2000/svg" xmlns:xlink="http://www.w3.org/1999/xlink" width="54.672" height="112.86326"><g transform="translate(-212.164,-123.46861)"><g data-paper-data="{&quot;isPaintingLayer&quot;:true}" fill="none" fill-rule="nonzero" stroke="none" stroke-width="1" stroke-linecap="butt" stroke-linejoin="miter" stroke-miterlimit="10" stroke-dasharray="" stroke-dashoffset="0" font-family="none" font-weight="none" font-size="none" text-anchor="none" style="mix-blend-mode: normal"><path d="M258.231,123.46861c4.752,0 8.605,4.65565 8.605,10.39487v89.14103c0,5.74043 -3.854,10.39367 -8.605,10.39367h-37.463c-4.752,0 -8.604,-4.65323 -8.604,-10.39367v-89.13982c0,-5.74285 3.852,-10.39487 8.604,-10.39487h37.463z" data-paper-data="{&quot;origPos&quot;:null,&quot;origRot&quot;:0}" fill="#000000"/><path d="M220.768,127.2368h37.462c2.862,0 5.19,2.81103 5.19,6.27075v89.13982c0,3.4561 -2.328,6.26954 -5.19,6.26954h-37.463c-2.862,0 -5.19,-2.81344 -5.19,-6.26954v-89.13982c0,-3.45972 2.329,-6.27075 5.191,-6.27075z" data-paper-data="{&quot;origPos&quot;:null,&quot;origRot&quot;:0}" fill="#ff8c1a"/><text transform="translate(224.84272,223.52425) scale(1.02461,1.02461)" font-size="40" xml:space="preserve" data-paper-data="{&quot;origPos&quot;:null}" fill="#ffffff" fill-rule="nonzero" stroke="none" stroke-width="1" stroke-linecap="butt" stroke-linejoin="miter" stroke-miterlimit="10" stroke-dasharray="" stroke-dashoffset="0" font-family="Sans Serif" font-weight="normal" text-anchor="start" style="mix-blend-mode: normal"><tspan x="0" dy="0">D</tspan></text></g></g></svg>