<?xml version="1.0" encoding="UTF-8" standalone="no"?>
<svg
   version="1.1"
   width="109.92957"
   height="34.007927"
   viewBox="0 0 109.92957 34.007926"
   id="svg3"
   sodipodi:docname="back.svg"
   inkscape:export-filename="back.svg"
   inkscape:export-xdpi="96"
   inkscape:export-ydpi="96"
   inkscape:version="1.4.2 (ebf0e940d0, 2025-05-08)"
   xmlns:inkscape="http://www.inkscape.org/namespaces/inkscape"
   xmlns:sodipodi="http://sodipodi.sourceforge.net/DTD/sodipodi-0.dtd"
   xmlns:xlink="http://www.w3.org/1999/xlink"
   xmlns="http://www.w3.org/2000/svg"
   xmlns:svg="http://www.w3.org/2000/svg">
  <defs
     id="defs3">
    <linearGradient
       id="swatch3"
       inkscape:swatch="solid">
      <stop
         style="stop-color:#000000;stop-opacity:1;"
         offset="0"
         id="stop3" />
    </linearGradient>
    <linearGradient
       inkscape:collect="always"
       xlink:href="#swatch3"
       id="linearGradient3"
       x1="0.63780057"
       y1="17.14089"
       x2="109.3828"
       y2="17.14089"
       gradientUnits="userSpaceOnUse"
       gradientTransform="matrix(0.98097137,0,0,0.92431322,1.0012519,1.1604034)" />
  </defs>
  <sodipodi:namedview
     id="namedview3"
     pagecolor="#ffffff"
     bordercolor="#000000"
     borderopacity="0.25"
     inkscape:showpageshadow="2"
     inkscape:pageopacity="0.0"
     inkscape:pagecheckerboard="0"
     inkscape:deskcolor="#d1d1d1"
     inkscape:zoom="8.8693147"
     inkscape:cx="54.964788"
     inkscape:cy="17.024991"
     inkscape:window-width="1446"
     inkscape:window-height="1029"
     inkscape:window-x="0"
     inkscape:window-y="0"
     inkscape:window-maximized="1"
     inkscape:current-layer="svg3">
    <inkscape:page
       x="0"
       y="0"
       width="109.92957"
       height="34.007927"
       id="page2"
       margin="0"
       bleed="0" />
  </sodipodi:namedview>
  <rect
     style="display:inline;fill:#ffffff;stroke:url(#linearGradient3);stroke-width:3.18232;paint-order:stroke fill markers"
     id="rect3"
     width="106.67572"
     height="30.802813"
     x="1.6269164"
     y="1.6025491"
     ry="5.8006945" />
  <path
     d="m 30.132746,23.9063 q 0,-3.140625 0,-6.585938 0,-3.421875 0,-6.5625 0,-2.1796874 1.40625,-2.1796874 1.40625,0 4.21875,0 2.789062,0 4.21875,1.21875 1.453125,1.2187504 1.453125,3.4687504 0,1.195312 -0.679688,2.0625 -0.679687,0.867187 -1.851562,1.382812 1.382812,0.375 2.179687,1.523438 0.796875,1.125 0.796875,2.625 0,2.296875 -1.476562,3.609375 -1.5,1.3125 -4.21875,1.3125 -3.234375,0 -4.640625,0 -1.40625,0 -1.40625,-1.875 z m 2.507812,-6.257813 q 0,1.570313 0,6.257813 0.890625,0 3.585938,0.02344 1.570312,0 2.484375,-0.820312 0.914062,-0.796875 0.914062,-2.226563 0.117188,-3.234375 -3.234375,-3.234375 -1.242187,0 -3.75,0 z m 0,-1.570312 q 0.84375,0 3.445313,0 1.476562,0 2.273437,-0.773438 0.796875,-0.796875 0.796875,-2.0625 0,-1.40625 -0.703125,-1.945312 -0.703125,-0.539063 -2.367187,-0.539063 -1.148438,0 -3.445313,0 0,1.335938 0,5.320313 z m 19.875,8.742187 q 0,-0.492187 0,-0.492187 -1.453125,1.6875 -3.84375,1.6875 -1.875,0 -3.070312,-0.984375 -1.195313,-0.984375 -1.195313,-2.625 0,-1.96875 1.523438,-3.070313 1.5,-1.101562 4.21875,-1.101562 0.703125,0 2.109375,0 0,-0.234375 0,-0.984375 0,-1.148438 -0.679688,-1.828125 -0.679687,-0.65625 -1.992187,-0.65625 -1.171875,0 -1.828125,0.328125 -0.65625,0.351562 -0.65625,1.195312 0,0.351563 -0.1875,0.703125 -0.164063,0.351563 -0.515625,0.445313 -0.234375,0.07031 -0.5625,0 -0.351563,-0.04687 -0.609375,-0.28125 -0.140625,-0.117188 -0.234375,-0.351563 -0.07031,-0.210937 -0.07031,-0.515625 0,-0.960937 0.539063,-1.59375 0.5625,-0.65625 1.710937,-1.171875 1.148438,-0.515625 2.53125,-0.515625 2.203125,0 3.445313,1.101563 1.242187,1.101562 1.289062,3.023437 0,1.945313 0,5.835938 0,1.078125 0,0.984375 0,-0.09375 0,0.609375 0,1.453125 -0.960937,1.453125 -0.960938,0 -0.960938,-1.195313 z m -3.515625,-0.796875 q 1.03125,0 1.945313,-0.515625 0.914062,-0.539062 1.3125,-1.382812 0,-0.867188 0,-2.601563 -0.421875,0 -1.6875,0 -3.984375,0 -3.984375,2.34375 0,1.007813 0.679687,1.59375 0.679688,0.5625 1.734375,0.5625 z m 13.828125,0.117188 q 1.148438,0 2.015625,-0.703125 0.867188,-0.703125 0.960938,-1.757813 0,-0.351562 0.1875,-0.703125 0.164062,-0.351562 0.515625,-0.445312 0.234375,-0.04687 0.5625,0 0.351562,0.04687 0.585937,0.28125 0.140625,0.140625 0.234375,0.351562 0.07031,0.234375 0.07031,0.515625 -0.04687,1.101563 -0.796875,2.085938 -0.75,0.984375 -1.898438,1.570312 -1.148437,0.585938 -2.4375,0.585938 -2.601562,0 -4.125,-1.734375 -1.523437,-1.734375 -1.523437,-4.734375 0,-0.117188 0,-0.351563 0,-1.851562 0.679687,-3.304687 0.679688,-1.429688 1.945313,-2.226563 1.265625,-0.796875 3,-0.796875 2.273437,0.02344 3.679687,1.289063 1.382813,1.265625 1.476563,3.304687 0,0.351563 -0.164063,0.703125 -0.1875,0.351563 -0.515625,0.445313 -0.234375,0.07031 -0.585937,0.02344 -0.351563,-0.07031 -0.585938,-0.304687 -0.140625,-0.117188 -0.234375,-0.351563 -0.07031,-0.210937 -0.07031,-0.515625 -0.09375,-1.242187 -0.9375,-2.015625 -0.820313,-0.796875 -2.0625,-0.796875 -1.640625,0 -2.554688,1.195313 -0.914062,1.171875 -0.914062,3.421875 0,0.140625 0,0.421875 0,2.179687 0.914062,3.375 0.890625,1.171875 2.578125,1.171875 z m 11.109375,-4.242188 q -0.328125,0.328125 -1.335937,1.3125 0,0.773438 0,3.117188 0,1.6875 -1.078125,1.6875 -1.078125,0 -1.078125,-1.6875 0,-3.726563 0,-14.8828129 0,-1.6875 1.078125,-1.6875 1.078125,0 1.078125,1.6875 0,2.2734379 0,9.1171879 0.28125,-0.328125 1.125,-1.289063 0.867187,-0.9375 3.445312,-3.75 0.960938,-0.960937 1.6875,-0.492187 0.703125,0.492187 0,1.453125 -0.84375,0.960937 -3.375,3.84375 1.03125,1.5 4.078125,6 0.234375,0.328125 0.210938,0.632812 0,0.375 -0.328125,0.703125 -0.585938,0.585938 -1.3125,-0.140625 -1.054688,-1.40625 -4.195313,-5.625 z"
     id="text4"
     style="font-size:24px;line-height:0;font-family:'Roboto Round';-inkscape-font-specification:'Roboto Round';stroke-width:3.342;paint-order:stroke fill markers"
     aria-label="Back" />
</svg>
