<svg version="1.1" xmlns="http://www.w3.org/2000/svg" xmlns:xlink="http://www.w3.org/1999/xlink" width="91.001" height="54.672" viewBox="0,0,91.001,54.672"><g transform="translate(-193.9995,-152.164)"><g data-paper-data="{&quot;isPaintingLayer&quot;:true}" fill-rule="nonzero" stroke-linecap="butt" stroke-linejoin="miter" stroke-miterlimit="10" stroke-dasharray="" stroke-dashoffset="0" style="mix-blend-mode: normal"><path d="M285.0005,198.231c0,4.752 -3.854,8.605 -8.605,8.605h-73.792c-4.752,0 -8.604,-3.854 -8.604,-8.605v-37.463c0,-4.752 3.852,-8.604 8.604,-8.604h73.791c4.754,0 8.605,3.852 8.605,8.604v37.463z" data-paper-data="{&quot;origPos&quot;:null}" fill="#000000" stroke="none" stroke-width="1"/><path d="M281.42032,160.768v37.462c0,2.862 -2.327,5.19 -5.191,5.19h-73.791c-2.861,0 -5.19,-2.328 -5.19,-5.19v-37.463c0,-2.862 2.329,-5.19 5.19,-5.19h73.791c2.864,0 5.191,2.329 5.191,5.191z" data-paper-data="{&quot;origPos&quot;:null}" fill="#ffffff" stroke="none" stroke-width="1"/><path d="M220.01487,179.52974c-1.50023,0.90604 -5.90801,-3.77712 -5.90801,-3.77712c0,0 -5.13615,3.8748 -6.46228,2.72751c-1.32727,-1.14724 1.7662,-6.78819 1.7662,-6.78819c0,0 -5.27146,-3.68768 -4.59019,-5.30321c0.68127,-1.61677 7.00116,-0.41772 7.00116,-0.41772c0,0 1.8768,-6.15278 3.62413,-6.00568c1.74971,0.14824 2.56277,6.53048 2.56277,6.53048c0,0 6.43168,-0.11649 6.82939,1.59201c0.40124,1.70736 -5.41737,4.45369 -5.41737,4.45369c0,0 2.09799,6.0822 0.5942,6.98824z" data-paper-data="{&quot;origPos&quot;:null}" fill="#ff8c1a" stroke="#000000" stroke-width="1.28786"/><path d="M244.89517,178.2385c-1.50023,0.90604 -5.90801,-3.77712 -5.90801,-3.77712c0,0 -5.13615,3.8748 -6.46228,2.72751c-1.32727,-1.14724 1.7662,-6.78819 1.7662,-6.78819c0,0 -5.27146,-3.68768 -4.59019,-5.30321c0.68127,-1.61677 7.00116,-0.41772 7.00116,-0.41772c0,0 1.8768,-6.15278 3.62413,-6.00568c1.74971,0.14824 2.56277,6.53048 2.56277,6.53048c0,0 6.43168,-0.11649 6.82939,1.59201c0.40124,1.70736 -5.41737,4.45369 -5.41737,4.45369c0,0 2.09799,6.0822 0.5942,6.98824z" data-paper-data="{&quot;origPos&quot;:null}" fill="#ff8c1a" stroke="#000000" stroke-width="1.28786"/><path d="M268.76888,179.21211c-1.50023,0.90604 -5.90801,-3.77712 -5.90801,-3.77712c0,0 -5.13615,3.8748 -6.46228,2.72751c-1.32727,-1.14724 1.7662,-6.78819 1.7662,-6.78819c0,0 -5.27146,-3.68768 -4.59019,-5.30321c0.68127,-1.61677 7.00116,-0.41772 7.00116,-0.41772c0,0 1.8768,-6.15278 3.62413,-6.00568c1.74971,0.14824 2.56277,6.53048 2.56277,6.53048c0,0 6.43168,-0.11649 6.82939,1.59201c0.40124,1.70736 -5.41737,4.45369 -5.41737,4.45369c0,0 2.09799,6.0822 0.5942,6.98824z" data-paper-data="{&quot;origPos&quot;:null}" fill="#ff8c1a" stroke="#000000" stroke-width="1.28786"/><text transform="translate(204.46269,196.30796) scale(0.3467,0.33094)" font-size="40" xml:space="preserve" fill="#000000" fill-rule="nonzero" stroke="none" stroke-width="1" stroke-linecap="butt" stroke-linejoin="miter" stroke-miterlimit="10" stroke-dasharray="" stroke-dashoffset="0" font-family="Sans Serif" font-weight="normal" text-anchor="start" style="mix-blend-mode: normal"><tspan x="0" dy="0">Уровень 3</tspan></text></g></g></svg>