<?xml version="1.0" encoding="UTF-8" standalone="no"?>
<svg
   version="1.1"
   width="135.60802"
   height="34.007927"
   viewBox="0 0 135.60801 34.007926"
   id="svg3"
   sodipodi:docname="main_menu.svg"
   inkscape:export-filename="back.svg"
   inkscape:export-xdpi="96"
   inkscape:export-ydpi="96"
   inkscape:version="1.4.2 (ebf0e940d0, 2025-05-08)"
   xmlns:inkscape="http://www.inkscape.org/namespaces/inkscape"
   xmlns:sodipodi="http://sodipodi.sourceforge.net/DTD/sodipodi-0.dtd"
   xmlns:xlink="http://www.w3.org/1999/xlink"
   xmlns="http://www.w3.org/2000/svg"
   xmlns:svg="http://www.w3.org/2000/svg">
  <defs
     id="defs3">
    <linearGradient
       id="swatch3"
       inkscape:swatch="solid">
      <stop
         style="stop-color:#000000;stop-opacity:1;"
         offset="0"
         id="stop3" />
    </linearGradient>
    <linearGradient
       inkscape:collect="always"
       xlink:href="#swatch3"
       id="linearGradient3"
       x1="0.63780057"
       y1="17.14089"
       x2="109.3828"
       y2="17.14089"
       gradientUnits="userSpaceOnUse"
       gradientTransform="matrix(1.2146443,0,0,0.91413341,0.98607929,1.3348945)" />
  </defs>
  <sodipodi:namedview
     id="namedview3"
     pagecolor="#ffffff"
     bordercolor="#000000"
     borderopacity="0.25"
     inkscape:showpageshadow="2"
     inkscape:pageopacity="0.0"
     inkscape:pagecheckerboard="0"
     inkscape:deskcolor="#d1d1d1"
     inkscape:zoom="7.18984"
     inkscape:cx="67.804012"
     inkscape:cy="16.968389"
     inkscape:window-width="1446"
     inkscape:window-height="1029"
     inkscape:window-x="0"
     inkscape:window-y="0"
     inkscape:window-maximized="1"
     inkscape:current-layer="svg3">
    <inkscape:page
       x="0"
       y="0"
       width="135.60802"
       height="34.007927"
       id="page2"
       margin="0"
       bleed="0" />
  </sodipodi:namedview>
  <rect
     style="display:inline;fill:#ffffff;stroke:url(#linearGradient3);stroke-width:3.52156;paint-order:stroke fill markers"
     id="rect3"
     width="132.08647"
     height="30.46357"
     x="1.7607801"
     y="1.7721705"
     ry="5.7368093" />
  <path
     d="M 13.346985,9.7734871 Q 14.51886,12.6563 17.98761,21.328175 q 1.195312,-2.90625 4.734375,-11.5546879 0.492187,-1.453125 1.3125,-1.453125 0.04687,0 0.117187,0 0.9375,0.140625 0.9375,1.453125 0,4.8046879 0,14.4374999 0,1.3125 -0.9375,1.3125 -0.914062,0 -0.914062,-1.3125 0,-1.921875 0,-5.789062 0,-1.429688 0,-5.765625 -1.101563,2.882812 -4.453125,11.554687 -0.257813,0.773438 -0.796875,0.773438 -0.515625,0 -0.773438,-0.773438 -1.3125,-3.421875 -2.34375,-6.046875 -1.007812,-2.625 -2.132812,-5.507812 0,1.921875 0,5.765625 0,1.453125 -0.02344,5.789062 0.02344,1.3125 -0.890625,1.3125 -0.914062,0 -0.914062,-1.3125 0,-4.828125 0,-14.4374999 0,-1.3125 0.914062,-1.453125 0.914063,-0.1171875 1.523438,1.453125 z M 37.511047,24.56255 q 0,-0.492188 0,-0.492188 -1.453125,1.6875 -3.84375,1.6875 -1.875,0 -3.070312,-0.984375 -1.195313,-0.984375 -1.195313,-2.625 0,-1.96875 1.523438,-3.070312 1.5,-1.101563 4.21875,-1.101563 0.703125,0 2.109375,0 0,-0.234375 0,-0.984375 0,-1.148437 -0.679688,-1.828125 -0.679687,-0.65625 -1.992187,-0.65625 -1.171875,0 -1.828125,0.328125 -0.65625,0.351563 -0.65625,1.195313 0,0.351562 -0.1875,0.703125 -0.164063,0.351562 -0.515625,0.445312 -0.234375,0.07031 -0.5625,0 -0.351563,-0.04687 -0.609375,-0.28125 -0.140625,-0.117187 -0.234375,-0.351562 -0.07031,-0.210938 -0.07031,-0.515625 0,-0.960938 0.539063,-1.59375 0.5625,-0.65625 1.710937,-1.171875 1.148438,-0.515625 2.53125,-0.515625 2.203125,0 3.445313,1.101562 1.242187,1.101563 1.289062,3.023438 0,1.945312 0,5.835937 0,1.078125 0,0.984375 0,-0.09375 0,0.609375 0,1.453125 -0.960937,1.453125 -0.960938,0 -0.960938,-1.195312 z m -3.515625,-0.796875 q 1.03125,0 1.945313,-0.515625 0.914062,-0.539063 1.3125,-1.382813 0,-0.867187 0,-2.601562 -0.421875,0 -1.6875,0 -3.984375,0 -3.984375,2.34375 0,1.007812 0.679687,1.59375 0.679688,0.5625 1.734375,0.5625 z m 11.273438,0.304687 q 0,1.6875 -1.078125,1.6875 -1.078125,0 -1.078125,-1.6875 0,-2.390625 0,-9.609375 0,-1.664062 1.054687,-1.6875 0.02344,0 0.02344,0 1.078125,0 1.078125,1.6875 0,2.414063 0,9.609375 z M 42.854797,9.4687996 q 0,-0.515625 0.304688,-0.890625 0.328125,-0.3515625 0.960937,-0.3515625 0.632813,0 0.960938,0.3515625 0.328125,0.375 0.328125,0.890625 0,0.5390624 -0.328125,0.8906254 -0.328125,0.351562 -0.960938,0.351562 -0.632812,0 -0.960937,-0.351562 -0.304688,-0.351563 -0.304688,-0.8906254 z m 7.757813,4.5234374 q 0,0.117188 0,0.46875 1.101562,-1.875 3.609375,-1.921875 3.9375,-0.02344 4.3125,4.570313 0,2.390625 0,7.195312 0,1.453125 -1.078125,1.453125 -1.078125,0 -1.078125,-1.453125 0,-1.78125 0,-7.195312 -0.02344,-1.382813 -0.5625,-2.015625 -0.539063,-0.632813 -1.851563,-0.632813 -1.054687,0 -1.875,0.5625 -0.84375,0.539063 -1.265625,1.453125 0,2.625 0.02344,7.828125 0,1.453125 -1.078125,1.453125 -1.078125,0 -1.078125,-1.453125 0,-2.578125 0,-10.3125 0,-1.453125 0.960937,-1.453125 0.960938,0 0.960938,1.453125 z m 19.171875,-0.257812 q 0,0.140625 0,0.492187 0.609375,-1.710937 3.117187,-1.6875 2.671875,0 4.40625,2.109375 0.609375,-0.914062 1.382813,-1.523437 0.75,-0.585938 2.132812,-0.585938 3.984375,0.09375 4.570313,4.570313 0,2.8125 0,8.414062 -0.46875,0 -1.921875,0 -0.02344,-2.109375 -0.04687,-8.367187 0,-1.359375 -0.679688,-2.039063 -0.679687,-0.65625 -2.15625,-0.65625 -1.195312,0 -1.96875,0.726563 -0.773437,0.703125 -0.914062,1.921875 0,2.390625 0,7.195312 0,1.453125 -0.960938,1.453125 -0.960937,0 -0.960937,-1.453125 0,-1.78125 0,-7.195312 -0.234375,-2.742188 -3.117188,-2.648438 -2.320312,0.140625 -2.882812,1.921875 0,2.648438 0,7.921875 0,1.453125 -0.960938,1.453125 -0.960937,0 -0.960937,-1.453125 0,-2.625 0,-10.570312 0,-1.195313 0.960937,-1.195313 0.960938,0 0.960938,1.195313 z M 94.01886,25.710987 q -2.578125,0 -4.195313,-1.710937 -1.617187,-1.6875 -1.617187,-4.523438 0,-0.117187 0,-0.398437 0,-1.875 0.726562,-3.375 0.726563,-1.476563 2.015625,-2.296875 1.289063,-0.84375 2.8125,-0.84375 2.460938,0 3.84375,1.664062 1.359375,1.6875 1.359375,3.84375 0,0.351563 -0.07031,0.726563 -0.09375,0.375 -0.28125,0.585937 -0.164063,0.1875 -0.609375,0.28125 -0.445313,0.09375 -1.195313,0.09375 -1.617187,0 -6.421875,0 0.04687,1.875 1.101563,3.023438 1.03125,1.148437 2.648437,1.148437 1.242188,-0.09375 1.710938,-0.328125 0.492187,-0.257812 1.078125,-1.03125 0.234375,-0.257812 0.5625,-0.421875 0.351562,-0.164062 0.5625,-0.117187 0.140625,0.04687 0.28125,0.164062 0.164062,0.140625 0.210937,0.351563 0.04687,0.164062 -0.02344,0.445312 -0.07031,0.257813 -0.257813,0.609375 -1.40625,2.132813 -3.609375,2.15625 -0.304687,0 -0.632812,-0.04687 z M 93.690735,14.226612 q -1.3125,0 -2.109375,1.054688 -0.796875,1.054687 -1.007813,2.789062 2.0625,0 6.234375,0 0,-0.07031 0,-0.257812 -0.09375,-1.664063 -0.9375,-2.625 -0.820312,-0.960938 -2.179687,-0.960938 z m 9.843745,-0.234375 q 0,0.117188 0,0.46875 1.10157,-1.875 3.60938,-1.921875 3.9375,-0.02344 4.3125,4.570313 0,2.390625 0,7.195312 0,1.453125 -1.07813,1.453125 -1.07812,0 -1.07812,-1.453125 0,-1.78125 0,-7.195312 -0.0234,-1.382813 -0.5625,-2.015625 -0.53906,-0.632813 -1.85156,-0.632813 -1.05469,0 -1.875,0.5625 -0.84375,0.539063 -1.26563,1.453125 0,2.625 0.0234,7.828125 0,1.453125 -1.07813,1.453125 -1.07812,0 -1.07812,-1.453125 0,-2.578125 0,-10.3125 0,-1.453125 0.96094,-1.453125 0.96093,0 0.96093,1.453125 z m 19.24219,10.3125 q -1.26562,1.5 -3.86719,1.453125 -2.01562,0 -3.02343,-1.242187 -1.03125,-1.265625 -1.03125,-3.5625 0,-2.320313 0,-6.960938 0,-1.21875 1.07812,-1.21875 1.07813,0 1.07813,1.21875 0,1.734375 0,6.960938 0,2.882812 2.25,2.953125 2.46093,0.09375 3.28125,-1.757813 0,-2.71875 0,-8.132812 0,-1.21875 1.07812,-1.21875 1.07813,0 1.07813,1.195312 0,2.625 0,10.570313 0,1.195312 -0.96094,1.195312 -0.96094,0 -0.96094,-1.195312 0,-0.07031 0,-0.257813 z"
     id="text4"
     style="font-size:24px;line-height:0;font-family:'Roboto Round';-inkscape-font-specification:'Roboto Round';stroke-width:3.342;paint-order:stroke fill markers"
     aria-label="Main menu" />
</svg>
