<?xml version="1.0" encoding="UTF-8" standalone="no"?>
<svg
   version="1.1"
   width="109.85804"
   height="33.98513"
   viewBox="0 0 109.85804 33.985129"
   id="svg3"
   sodipodi:docname="back.svg"
   inkscape:export-filename="play_note.svg"
   inkscape:export-xdpi="96"
   inkscape:export-ydpi="96"
   inkscape:version="1.4.2 (ebf0e940d0, 2025-05-08)"
   xmlns:inkscape="http://www.inkscape.org/namespaces/inkscape"
   xmlns:sodipodi="http://sodipodi.sourceforge.net/DTD/sodipodi-0.dtd"
   xmlns:xlink="http://www.w3.org/1999/xlink"
   xmlns="http://www.w3.org/2000/svg"
   xmlns:svg="http://www.w3.org/2000/svg">
  <rect
     style="display:inline;fill:#ffffff;stroke:url(#linearGradient3);stroke-width:3.18232;paint-order:stroke fill markers"
     id="rect3"
     width="106.67572"
     height="30.802813"
     x="1.5911601"
     y="1.5911601"
     ry="5.8006945" />
  <path
     d="m 9.1321451,16.687878 q 0,1.3125 0,5.226562 0,1.570313 -1.078125,1.570313 -1.1015625,0 -1.1015625,-1.570313 0,-3.445312 0,-6.726562 0,-3.28125 0,-7.0312496 0,-1.875 1.40625,-1.875 1.40625,0 4.8281244,0.023437 2.789063,0 4.382813,1.4296875 1.59375,1.4296875 1.59375,3.7734371 0,2.484375 -1.546875,3.84375 -1.570313,1.335938 -4.453125,1.335938 -1.335938,0 -4.0312499,0 z m 0,-1.664063 q 1.0312499,0 4.0781249,0 1.804687,0 2.742187,-0.9375 0.960938,-0.9375 0.960938,-2.554687 0,-1.523438 -0.960938,-2.4374996 -0.960937,-0.9140625 -2.648437,-0.9375 -1.382813,0 -4.1718749,0 0,1.7109375 0,6.8671866 z m 15.1640619,7.007813 q 0,1.6875 -1.078125,1.6875 -1.078125,0 -1.078125,-1.6875 0,-3.726563 0,-14.8828121 0,-1.6875 1.078125,-1.6875 1.078125,0 1.078125,1.6875 0,3.7265621 0,14.8828121 z m 11.109375,0.492187 q 0,-0.492187 0,-0.492187 -1.453125,1.6875 -3.84375,1.6875 -1.875,0 -3.070312,-0.984375 -1.195313,-0.984375 -1.195313,-2.625 0,-1.96875 1.523438,-3.070313 1.5,-1.101562 4.21875,-1.101562 0.703125,0 2.109375,0 0,-0.234375 0,-0.984375 0,-1.148438 -0.679688,-1.828125 -0.679687,-0.65625 -1.992187,-0.65625 -1.171875,0 -1.828125,0.328125 -0.65625,0.351562 -0.65625,1.195312 0,0.351563 -0.1875,0.703125 -0.164063,0.351563 -0.515625,0.445313 -0.234375,0.07031 -0.5625,0 -0.351563,-0.04687 -0.609375,-0.28125 -0.140625,-0.117188 -0.234375,-0.351563 -0.07031,-0.210937 -0.07031,-0.515625 0,-0.960937 0.539063,-1.59375 0.5625,-0.65625 1.710937,-1.171875 1.148438,-0.515625 2.53125,-0.515625 2.203125,0 3.445313,1.101563 1.242187,1.101562 1.289062,3.023437 0,1.945313 0,5.835938 0,1.078125 0,0.984375 0,-0.09375 0,0.609375 0,1.453125 -0.960937,1.453125 -0.960938,0 -0.960938,-1.195313 z M 31.889957,21.72694 q 1.03125,0 1.945313,-0.515625 0.914062,-0.539062 1.3125,-1.382812 0,-0.867188 0,-2.601563 -0.421875,0 -1.6875,0 -3.984375,0 -3.984375,2.34375 0,1.007813 0.679687,1.59375 0.679688,0.5625 1.734375,0.5625 z m 12.960938,-1.617187 q 0.65625,-1.96875 2.648437,-7.921875 0.445313,-1.335938 1.40625,-1.335938 0.07031,0 0.140625,0.02344 0.890625,0.09375 0.890625,0.914062 0,0.1875 -0.04687,0.398438 -1.195312,3.304687 -2.390625,6.585937 -1.195312,3.257813 -2.4375,6.65625 -0.984375,3.09375 -3.5625,3.09375 -0.585937,0 -0.726562,0 -0.117188,0 -0.234375,0 -1.21875,0 -1.21875,-0.960937 0,-0.960938 1.21875,-0.960938 0.09375,0 1.242187,-0.117187 1.148438,-0.117188 1.617188,-1.851563 0.07031,-0.46875 0.257812,-1.40625 -1.078125,-2.742187 -4.335937,-11.039062 -0.04687,-0.210938 -0.04687,-0.398438 0,-0.820312 0.890625,-0.914062 1.078125,-0.140625 1.570312,1.3125 0.773438,1.992187 3.117188,7.921875 z m 15.117187,-8.15625 q 0,0.117187 0,0.46875 1.101563,-1.875 3.609375,-1.921875 3.9375,-0.02344 4.3125,4.570312 0,2.390625 0,7.195313 0,1.453125 -1.078125,1.453125 -1.078125,0 -1.078125,-1.453125 0,-1.78125 0,-7.195313 -0.02344,-1.382812 -0.5625,-2.015625 -0.539062,-0.632812 -1.851562,-0.632812 -1.054688,0 -1.875,0.5625 -0.84375,0.539062 -1.265625,1.453125 0,2.625 0.02344,7.828125 0,1.453125 -1.078125,1.453125 -1.078125,0 -1.078125,-1.453125 0,-2.578125 0,-10.3125 0,-1.453125 0.960938,-1.453125 0.960937,0 0.960937,1.453125 z m 10.6875,5.0625 q 0,-1.851563 0.75,-3.351563 0.726563,-1.476562 2.039063,-2.296875 1.3125,-0.796875 2.976562,-0.796875 2.578125,0 4.195313,1.78125 1.59375,1.804688 1.59375,4.78125 0,0.04687 0,0.140625 0,1.851563 -0.703125,3.328125 -0.726563,1.476563 -2.039063,2.296875 -1.3125,0.820313 -3.023437,0.820313 -2.578125,0 -4.171875,-1.804688 -1.617188,-1.78125 -1.617188,-4.734375 0,-0.04687 0,-0.164062 z m 2.203125,0.257812 q 0,2.109375 0.960938,3.398438 0.984375,1.265625 2.625,1.265625 1.664062,0 2.625,-1.289063 0.960937,-1.289062 0.960937,-3.632812 0,-2.085938 -0.984375,-3.375 -0.984375,-1.289063 -2.625,-1.289063 -1.59375,0 -2.578125,1.265625 -0.984375,1.289063 -0.984375,3.65625 z m 15,-8.4609366 q 0,0.4921875 0,1.9218746 0.421875,0 1.734375,0 0.65625,0 0.65625,0.84375 0,0.84375 -0.703125,0.84375 -0.421875,0 -1.6875,0 0,1.992187 0.02344,7.921875 0,0.75 0.210937,1.101562 0.210938,0.351563 0.960938,0.351563 0.492187,0 1.195312,-0.234375 0.210938,-0.07031 0.421875,-0.04687 0.210938,0.02344 0.328125,0.210937 0.07031,0.117188 0.09375,0.375 0,0.04687 0,0.09375 0,0.210938 -0.09375,0.445313 -0.04687,0.140625 -0.1875,0.304687 -0.117187,0.164063 -0.304687,0.28125 -0.726563,0.492188 -1.875,0.492188 -1.453125,0 -2.179688,-0.890625 -0.75,-0.867188 -0.75,-2.484375 0,-2.648438 0,-7.921875 -0.375,0 -1.453125,0 -0.960937,0 -0.960937,-0.84375 0,-0.84375 0.960937,-0.84375 0.351563,0 1.453125,0 0,-0.46875 0,-1.9218746 0,-1.1953125 1.078125,-1.1953125 1.078125,0 1.078125,1.1953125 z M 97.96027,23.672253 q -2.578125,0 -4.195313,-1.710938 -1.617187,-1.6875 -1.617187,-4.523437 0,-0.117188 0,-0.398438 0,-1.875 0.726562,-3.375 0.726563,-1.476562 2.015625,-2.296875 1.289063,-0.84375 2.8125,-0.84375 2.460933,0 3.843753,1.664063 1.35937,1.6875 1.35937,3.84375 0,0.351562 -0.0703,0.726562 -0.0937,0.375 -0.28125,0.585938 -0.16406,0.1875 -0.60938,0.28125 -0.44531,0.09375 -1.19531,0.09375 -1.617185,0 -6.421873,0 0.04687,1.875 1.101563,3.023437 1.03125,1.148438 2.648437,1.148438 1.242188,-0.09375 1.710938,-0.328125 0.492185,-0.257813 1.078125,-1.03125 0.23437,-0.257813 0.5625,-0.421875 0.35156,-0.164063 0.5625,-0.117188 0.14062,0.04687 0.28125,0.164063 0.16406,0.140625 0.21094,0.351562 0.0469,0.164063 -0.0234,0.445313 -0.0703,0.257812 -0.25781,0.609375 -1.40625,2.132812 -3.609378,2.15625 -0.304687,0 -0.632812,-0.04687 z M 97.632145,12.187878 q -1.3125,0 -2.109375,1.054687 -0.796875,1.054688 -1.007813,2.789063 2.0625,0 6.234373,0 0,-0.07031 0,-0.257813 -0.0937,-1.664062 -0.937498,-2.625 -0.820312,-0.960937 -2.179687,-0.960937 z"
     id="text2"
     style="font-size:24px;line-height:0;font-family:'Roboto Round';-inkscape-font-specification:'Roboto Round';stroke-width:3.342;paint-order:stroke fill markers"
     aria-label="Play note" />
  <defs
     id="defs3">
    <linearGradient
       id="swatch3"
       inkscape:swatch="solid">
      <stop
         style="stop-color:#000000;stop-opacity:1;"
         offset="0"
         id="stop3" />
    </linearGradient>
    <linearGradient
       inkscape:collect="always"
       xlink:href="#swatch3"
       id="linearGradient3"
       x1="0.63780057"
       y1="17.14089"
       x2="109.3828"
       y2="17.14089"
       gradientUnits="userSpaceOnUse"
       gradientTransform="matrix(0.98097137,0,0,0.92431322,0.96549549,1.1490144)" />
  </defs>
  <sodipodi:namedview
     id="namedview3"
     pagecolor="#ffffff"
     bordercolor="#000000"
     borderopacity="0.25"
     inkscape:showpageshadow="2"
     inkscape:pageopacity="0.0"
     inkscape:pagecheckerboard="0"
     inkscape:deskcolor="#d1d1d1"
     inkscape:zoom="8.8693147"
     inkscape:cx="54.964788"
     inkscape:cy="17.024991"
     inkscape:window-width="1446"
     inkscape:window-height="1029"
     inkscape:window-x="0"
     inkscape:window-y="0"
     inkscape:window-maximized="1"
     inkscape:current-layer="svg3">
    <inkscape:page
       x="0"
       y="0"
       width="109.85804"
       height="33.98513"
       id="page1"
       margin="0"
       bleed="0" />
  </sodipodi:namedview>
</svg>
