<?xml version="1.0" encoding="UTF-8" standalone="no"?>
<svg
   version="1.1"
   width="49.440659"
   height="140.09723"
   id="svg3"
   sodipodi:docname="a#4_pressed.svg"
   inkscape:version="1.4.2 (ebf0e940d0, 2025-05-08)"
   inkscape:export-filename="c4_pressed.svg"
   inkscape:export-xdpi="110.68102"
   inkscape:export-ydpi="110.68102"
   xmlns:inkscape="http://www.inkscape.org/namespaces/inkscape"
   xmlns:sodipodi="http://sodipodi.sourceforge.net/DTD/sodipodi-0.dtd"
   xmlns:xlink="http://www.w3.org/1999/xlink"
   xmlns="http://www.w3.org/2000/svg"
   xmlns:svg="http://www.w3.org/2000/svg">
  <defs
     id="defs3">
    <linearGradient
       id="swatch5"
       inkscape:swatch="solid">
      <stop
         style="stop-color:#000000;stop-opacity:1;"
         offset="0"
         id="stop5" />
    </linearGradient>
    <linearGradient
       id="swatch4"
       inkscape:swatch="solid">
      <stop
         style="stop-color:#000000;stop-opacity:1;"
         offset="0"
         id="stop4" />
    </linearGradient>
    <linearGradient
       id="swatch3"
       inkscape:swatch="solid">
      <stop
         style="stop-color:#000000;stop-opacity:1;"
         offset="0"
         id="stop3" />
    </linearGradient>
    <linearGradient
       inkscape:collect="always"
       xlink:href="#swatch5"
       id="linearGradient5"
       x1="15.79076"
       y1="58.512028"
       x2="32.9897"
       y2="58.512028"
       gradientUnits="userSpaceOnUse"
       gradientTransform="matrix(2.6711331,0,0,4.5367795,-40.429229,-195.40753)" />
  </defs>
  <sodipodi:namedview
     id="namedview3"
     pagecolor="#ffffff"
     bordercolor="#000000"
     borderopacity="0.25"
     inkscape:showpageshadow="2"
     inkscape:pageopacity="0.0"
     inkscape:pagecheckerboard="0"
     inkscape:deskcolor="#d1d1d1"
     inkscape:zoom="4"
     inkscape:cx="-3.5"
     inkscape:cy="78.25"
     inkscape:window-width="1317"
     inkscape:window-height="1029"
     inkscape:window-x="0"
     inkscape:window-y="0"
     inkscape:window-maximized="0"
     inkscape:current-layer="svg3">
    <inkscape:page
       x="0"
       y="0"
       width="49.440659"
       height="140.09723"
       id="page2"
       margin="0"
       bleed="0" />
  </sodipodi:namedview>
  <rect
     style="fill:#a53faa;fill-opacity:1;stroke:url(#linearGradient5);stroke-width:3.5;stroke-dasharray:none;paint-order:stroke fill markers"
     id="rect4"
     width="45.940659"
     height="136.59723"
     x="1.75"
     y="1.75"
     ry="6.2756801" />
  <path
     d="m 31.08817,56.40459 q 0,2.54953 0,10.16168 1.733023,0.58275 7.012689,2.29458 1.209083,0.43706 1.249386,1.38403 0,0.29137 -0.120921,0.61917 -0.362726,1.01981 -1.370297,1.01981 -0.403026,0 -0.926964,-0.1821 -8.584498,-2.95017 -25.75349,-8.81408 -1.2090862,-0.43706 -1.2090862,-1.38403 -0.040307,-0.98339 1.2090862,-1.42045 8.584498,-2.98659 25.75349,-8.92334 0.44333,-0.14569 0.765753,-0.14569 1.007571,0 1.410601,1.05623 0.604555,1.42044 -1.007558,2.00319 -2.337564,0.76486 -7.012689,2.331 z m -2.942102,9.21472 q 0,-2.07605 0,-8.26775 -3.143621,1.01981 -12.574475,4.11566 3.143617,1.05623 12.574475,4.15209 z m 2.74059,-28.84608 q 0,1.05624 0,4.3342 1.813624,0.25495 7.214201,1.09265 1.612113,0.3278 1.612113,1.78467 0,1.45687 -1.612113,1.09266 -1.773323,-0.25496 -7.214201,-1.09266 0,0.72844 0,2.91375 0,1.42045 -1.370297,1.42045 -1.410597,0 -1.410597,-1.42045 0,-0.83771 0,-3.27797 -1.692719,-0.36421 -6.811175,-1.42045 0,0.80128 0,3.24154 0,1.45688 -1.410597,1.45688 -1.370297,0 -1.370297,-1.45688 0,-0.91054 0,-3.60576 -1.73302,-0.29137 -6.811171,-1.09265 -1.612112,-0.36422 -1.612112,-1.82109 0,-1.45688 1.612112,-1.09265 1.692716,0.29137 6.811171,1.09265 0,-1.1655 0,-4.698417 -1.73302,-0.254952 -6.811171,-1.092654 -1.612112,-0.364218 -1.612112,-1.602559 0,-1.274764 1.612112,-0.910546 1.692716,0.254952 6.811171,1.056233 0,-0.619171 0,-2.513105 0,-1.456873 1.370297,-1.456873 1.410597,0 1.410597,1.456873 0,0.728436 0,2.877323 1.69272,0.291374 6.811175,1.092654 0,-0.546327 0,-2.148887 0,-1.456872 1.410597,-1.456872 1.370297,0 1.370297,1.456872 0,0.692015 0,2.877323 1.813624,0.364218 7.214201,1.456873 1.612113,0.364218 1.612113,1.784672 0,1.45687 -1.612113,1.09265 -1.773323,-0.36421 -7.214201,-1.42045 z m -2.780894,3.96998 q 0,-1.1655 0,-4.69842 -1.692719,-0.29137 -6.811175,-1.09265 0,1.1655 0,4.69842 1.69272,0.25495 6.811175,1.09265 z m 1.209082,-29.137451 q 0,-0.546327 0,-2.185309 Q 29.314846,8 30.886658,8 q 1.612112,0 1.612112,1.42045 0,0.546327 0,2.185309 1.28969,0 5.19906,0 2.015142,0 2.015142,1.456873 0,1.42045 -2.015142,1.42045 -1.28969,0 -5.19906,0 0,2.367418 0,9.433249 0,2.148887 -1.209085,2.513105 -0.282116,0.109264 -0.604542,0.109264 -1.088174,0 -2.579379,-0.837701 -3.989977,-2.513105 -16.000214,-10.125263 -1.934535,-1.456873 -1.934535,-2.440262 0,-0.218529 0.120922,-0.437062 0.604544,-1.092654 2.982409,-1.092654 4.03028,0 16.040514,0 z m 0,11.217918 q 0,-2.076043 0,-8.340595 -3.506343,0 -14.025375,0 0.161211,0.109266 0.564241,0.40064 3.385435,1.966778 13.461134,7.939955 z"
     id="text5"
     style="line-height:0;font-family:'Roboto Round';-inkscape-font-specification:'Roboto Round';white-space:pre;inline-size:27.9084;fill:#ffffff;stroke-width:11.4426;paint-order:stroke fill markers"
     aria-label="A#4" />
</svg>
