<?xml version="1.0" encoding="UTF-8" standalone="no"?>
<svg
   version="1.1"
   width="49.440659"
   height="140.09723"
   id="svg3"
   sodipodi:docname="c3_pressed.svg"
   inkscape:version="1.4.2 (ebf0e940d0, 2025-05-08)"
   inkscape:export-filename="e3_pressed.svg"
   inkscape:export-xdpi="110.68102"
   inkscape:export-ydpi="110.68102"
   xmlns:inkscape="http://www.inkscape.org/namespaces/inkscape"
   xmlns:sodipodi="http://sodipodi.sourceforge.net/DTD/sodipodi-0.dtd"
   xmlns:xlink="http://www.w3.org/1999/xlink"
   xmlns="http://www.w3.org/2000/svg"
   xmlns:svg="http://www.w3.org/2000/svg">
  <defs
     id="defs3">
    <linearGradient
       id="swatch5"
       inkscape:swatch="solid">
      <stop
         style="stop-color:#000000;stop-opacity:1;"
         offset="0"
         id="stop5" />
    </linearGradient>
    <linearGradient
       id="swatch4"
       inkscape:swatch="solid">
      <stop
         style="stop-color:#000000;stop-opacity:1;"
         offset="0"
         id="stop4" />
    </linearGradient>
    <linearGradient
       id="swatch3"
       inkscape:swatch="solid">
      <stop
         style="stop-color:#000000;stop-opacity:1;"
         offset="0"
         id="stop3" />
    </linearGradient>
    <linearGradient
       inkscape:collect="always"
       xlink:href="#swatch5"
       id="linearGradient5"
       x1="15.79076"
       y1="58.512028"
       x2="32.9897"
       y2="58.512028"
       gradientUnits="userSpaceOnUse"
       gradientTransform="matrix(2.6711331,0,0,4.5367795,-40.429229,-195.40753)" />
  </defs>
  <sodipodi:namedview
     id="namedview3"
     pagecolor="#ffffff"
     bordercolor="#000000"
     borderopacity="0.25"
     inkscape:showpageshadow="2"
     inkscape:pageopacity="0.0"
     inkscape:pagecheckerboard="0"
     inkscape:deskcolor="#d1d1d1"
     inkscape:zoom="4"
     inkscape:cx="-3.5"
     inkscape:cy="78.25"
     inkscape:window-width="1317"
     inkscape:window-height="1029"
     inkscape:window-x="0"
     inkscape:window-y="0"
     inkscape:window-maximized="0"
     inkscape:current-layer="svg3">
    <inkscape:page
       x="0"
       y="0"
       width="49.440659"
       height="140.09723"
       id="page1"
       margin="0"
       bleed="0" />
  </sodipodi:namedview>
  <rect
     style="fill:#a53faa;fill-opacity:1;stroke:url(#linearGradient5);stroke-width:3.5;stroke-dasharray:none;paint-order:stroke fill markers"
     id="rect4"
     width="45.940659"
     height="136.59723"
     x="1.75"
     y="1.75"
     ry="6.2756801" />
  <path
     d="m 25.618529,91.350025 q -0.457787,3.979222 -3.028435,6.162512 -2.570648,2.148076 -6.690728,2.148076 -4.472223,0 -7.0780854,-3.204507 -2.6058624,-3.169292 -2.6058624,-8.521874 0,-0.80993 0,-2.429791 0,-3.521435 1.2677168,-6.162512 1.2325025,-2.676291 3.55665,-4.084866 2.288933,-1.443788 5.317368,-1.443788 4.014437,0 6.444227,2.218504 2.394577,2.253719 2.817149,6.232941 0,1.866361 -1.408574,1.866361 -1.408575,0 -1.901576,-1.866361 -0.422572,-2.99322 -1.901575,-4.36658 -1.443789,-1.37336 -4.049651,-1.37336 -3.169292,0 -5.000439,2.359362 -1.7959319,2.359362 -1.7959319,6.690728 0,0.80993 0,2.465005 0,4.084865 1.6198609,6.444227 1.61986,2.359362 4.718723,2.359362 2.74672,0 4.331366,-1.197288 1.549432,-1.197288 2.042433,-4.296151 0.528215,-2.042433 1.93679,-2.042433 1.408574,0 1.408574,2.042433 z m 10.247378,-6.021656 q 0.281715,0 1.05643,0 2.324148,-0.03521 3.556651,-1.267716 1.267716,-1.197289 1.267716,-3.204507 0,-4.507438 -4.507437,-4.507438 -2.112862,0 -3.31015,1.197289 -1.197288,1.232502 -1.197288,3.23972 0,0.528216 -0.246501,1.021217 -0.2465,0.493001 -0.774715,0.633858 -0.31693,0.105643 -0.809931,0.03521 -0.528215,-0.105644 -0.880359,-0.422573 -0.211286,-0.211286 -0.316929,-0.528215 -0.105643,-0.316929 -0.105643,-0.739502 0,-3.063649 2.112862,-5.106081 2.112861,-2.007219 5.528654,-2.007219 3.627078,0 5.704726,1.901576 2.042432,1.936789 2.042432,5.352582 0,1.655075 -1.05643,3.239721 -1.091646,1.549431 -2.958006,2.324147 2.112861,0.669073 3.274935,2.218505 1.126859,1.549431 1.126859,3.80315 0,3.451007 -2.253719,5.458226 -2.253719,2.042436 -5.845583,2.042436 -3.591864,0 -5.810369,-1.901579 -2.218504,-1.901575 -2.218504,-5.106082 0,-0.528215 0.2465,-1.021216 0.246501,-0.493001 0.739502,-0.633858 0.352143,-0.105644 0.845144,-0.03522 0.493001,0.105643 0.845145,0.422572 0.211286,0.211287 0.352143,0.528216 0.105643,0.316929 0.105643,0.739501 0,2.042433 1.338146,3.204507 1.338146,1.126859 3.55665,1.126859 2.359362,0 3.591864,-1.232502 1.267717,-1.232503 1.267717,-3.521436 0,-2.253719 -1.302931,-3.345364 -1.302931,-1.091645 -3.908794,-1.126859 -0.352143,0 -1.05643,0 -1.37336,0 -1.37336,-1.37336 0,-1.408575 1.37336,-1.408575 z"
     id="text1"
     style="font-size:36.0595px;line-height:0;font-family:'Roboto Round';-inkscape-font-specification:'Roboto Round';fill:#ffffff;stroke-width:13.5704;paint-order:stroke fill markers"
     transform="scale(0.95835285,1.043457)"
     aria-label="C3" />
</svg>
