<?xml version="1.0" encoding="UTF-8" standalone="no"?>
<svg
   version="1.1"
   width="49.440659"
   height="140.09723"
   id="svg3"
   sodipodi:docname="e4_pressed.svg"
   inkscape:version="1.4.2 (ebf0e940d0, 2025-05-08)"
   inkscape:export-filename="h3_pressed.svg"
   inkscape:export-xdpi="110.68102"
   inkscape:export-ydpi="110.68102"
   xmlns:inkscape="http://www.inkscape.org/namespaces/inkscape"
   xmlns:sodipodi="http://sodipodi.sourceforge.net/DTD/sodipodi-0.dtd"
   xmlns:xlink="http://www.w3.org/1999/xlink"
   xmlns="http://www.w3.org/2000/svg"
   xmlns:svg="http://www.w3.org/2000/svg">
  <defs
     id="defs3">
    <linearGradient
       id="swatch5"
       inkscape:swatch="solid">
      <stop
         style="stop-color:#000000;stop-opacity:1;"
         offset="0"
         id="stop5" />
    </linearGradient>
    <linearGradient
       id="swatch4"
       inkscape:swatch="solid">
      <stop
         style="stop-color:#000000;stop-opacity:1;"
         offset="0"
         id="stop4" />
    </linearGradient>
    <linearGradient
       id="swatch3"
       inkscape:swatch="solid">
      <stop
         style="stop-color:#000000;stop-opacity:1;"
         offset="0"
         id="stop3" />
    </linearGradient>
    <linearGradient
       inkscape:collect="always"
       xlink:href="#swatch5"
       id="linearGradient5"
       x1="15.79076"
       y1="58.512028"
       x2="32.9897"
       y2="58.512028"
       gradientUnits="userSpaceOnUse"
       gradientTransform="matrix(2.6711331,0,0,4.5367795,-40.429229,-195.40753)" />
  </defs>
  <sodipodi:namedview
     id="namedview3"
     pagecolor="#ffffff"
     bordercolor="#000000"
     borderopacity="0.25"
     inkscape:showpageshadow="2"
     inkscape:pageopacity="0.0"
     inkscape:pagecheckerboard="0"
     inkscape:deskcolor="#d1d1d1"
     inkscape:zoom="5.8530779"
     inkscape:cx="24.77329"
     inkscape:cy="70.048615"
     inkscape:window-width="1317"
     inkscape:window-height="1029"
     inkscape:window-x="0"
     inkscape:window-y="0"
     inkscape:window-maximized="0"
     inkscape:current-layer="svg3">
    <inkscape:page
       x="0"
       y="0"
       width="49.440659"
       height="140.09723"
       id="page2"
       margin="0"
       bleed="0" />
  </sodipodi:namedview>
  <rect
     style="fill:#a53faa;fill-opacity:1;stroke:url(#linearGradient5);stroke-width:3.5;stroke-dasharray:none;paint-order:stroke fill markers"
     id="rect4"
     width="45.940659"
     height="136.59723"
     x="1.75"
     y="1.75"
     ry="6.2756801" />
  <path
     d="m 18.222353,90.839202 q -2.453208,0 -4.540265,0 -2.087057,0 -4.2839596,0 0,3.112279 0,9.300218 3.0390486,0.0366 12.0829636,0.18308 1.427986,0.0366 1.427986,1.39137 -0.03662,1.35476 -1.427986,1.35476 -11.094358,0 -13.29126,0 -2.1969024,0 -2.1969024,-2.92921 0,-7.030085 0,-21.01703 0,-2.929204 2.1969024,-2.929204 2.196902,0 12.961724,0 1.464602,0 1.464602,1.464602 0,1.464602 -1.464602,1.464602 -3.917809,0 -11.7534276,0 0,2.196902 0,8.787609 2.1969026,0 8.7143796,-0.03661 1.720907,0 1.757522,1.501217 0.03662,1.464601 -1.647677,1.464601 z m 22.042254,3.148894 q 0.549225,0 2.196902,0 1.427987,0 1.427987,1.427987 0,1.464601 -1.427987,1.464601 -0.549226,0 -2.196902,0 0,1.171681 0,4.723336 0,1.83076 -1.464602,1.83076 -1.427987,0 -1.427987,-1.83076 0,-1.17168 0,-4.723336 -2.379977,0 -9.483295,0 -2.160287,0 -2.526438,-1.098451 -0.109845,-0.256305 -0.109845,-0.549226 0,-0.988606 0.842146,-2.343362 2.526438,-3.624889 10.178981,-14.536171 1.464602,-1.757522 2.453208,-1.757522 0.21969,0 0.43938,0.109845 1.098452,0.549226 1.098452,2.709513 0,3.661504 0,14.572786 z m -11.277433,0 q 2.087057,0 8.384844,0 0,-3.185509 0,-12.742034 -0.109845,0.14646 -0.402765,0.512611 -1.977212,3.075663 -7.982079,12.229423 z"
     id="text2"
     style="font-size:37.4938px;line-height:0;font-family:'Roboto Round';-inkscape-font-specification:'Roboto Round';fill:#ffffff;stroke-width:14.1102;paint-order:stroke fill markers"
     transform="scale(0.99114384,1.0089353)"
     aria-label="E4" />
</svg>
