<?xml version="1.0" encoding="UTF-8" standalone="no"?>
<svg
   version="1.1"
   width="49.440659"
   height="140.09723"
   id="svg3"
   sodipodi:docname="f#3_pressed.svg"
   inkscape:version="1.4.2 (ebf0e940d0, 2025-05-08)"
   inkscape:export-filename="d#3_pressed.svg"
   inkscape:export-xdpi="110.68102"
   inkscape:export-ydpi="110.68102"
   xmlns:inkscape="http://www.inkscape.org/namespaces/inkscape"
   xmlns:sodipodi="http://sodipodi.sourceforge.net/DTD/sodipodi-0.dtd"
   xmlns:xlink="http://www.w3.org/1999/xlink"
   xmlns="http://www.w3.org/2000/svg"
   xmlns:svg="http://www.w3.org/2000/svg">
  <defs
     id="defs3">
    <linearGradient
       id="swatch5"
       inkscape:swatch="solid">
      <stop
         style="stop-color:#000000;stop-opacity:1;"
         offset="0"
         id="stop5" />
    </linearGradient>
    <linearGradient
       id="swatch4"
       inkscape:swatch="solid">
      <stop
         style="stop-color:#000000;stop-opacity:1;"
         offset="0"
         id="stop4" />
    </linearGradient>
    <linearGradient
       id="swatch3"
       inkscape:swatch="solid">
      <stop
         style="stop-color:#000000;stop-opacity:1;"
         offset="0"
         id="stop3" />
    </linearGradient>
    <linearGradient
       inkscape:collect="always"
       xlink:href="#swatch5"
       id="linearGradient5"
       x1="15.79076"
       y1="58.512028"
       x2="32.9897"
       y2="58.512028"
       gradientUnits="userSpaceOnUse"
       gradientTransform="matrix(2.6711331,0,0,4.5367795,-40.429229,-195.40753)" />
  </defs>
  <sodipodi:namedview
     id="namedview3"
     pagecolor="#ffffff"
     bordercolor="#000000"
     borderopacity="0.25"
     inkscape:showpageshadow="2"
     inkscape:pageopacity="0.0"
     inkscape:pagecheckerboard="0"
     inkscape:deskcolor="#d1d1d1"
     inkscape:zoom="4"
     inkscape:cx="13.75"
     inkscape:cy="62.75"
     inkscape:window-width="1317"
     inkscape:window-height="1029"
     inkscape:window-x="0"
     inkscape:window-y="0"
     inkscape:window-maximized="0"
     inkscape:current-layer="svg3">
    <inkscape:page
       x="0"
       y="0"
       width="49.440659"
       height="140.09723"
       id="page1"
       margin="0"
       bleed="0" />
  </sodipodi:namedview>
  <rect
     style="fill:#a53faa;fill-opacity:1;stroke:url(#linearGradient5);stroke-width:3.5;stroke-dasharray:none;paint-order:stroke fill markers"
     id="rect4"
     width="45.940659"
     height="136.59723"
     x="1.75"
     y="1.75"
     ry="6.2756801" />
  <path
     d="m 25.5625,71.554687 q -0.761719,0 -3.011719,0 0,0.878907 0,3.515625 -0.02344,0.550782 -0.527344,0.5625 -0.01172,0 -0.02344,0 -0.492188,0 -0.503906,-0.5625 0,-2.367187 0,-7.101562 0,-0.855469 0.574218,-0.855469 0.574219,0 4.03125,-0.01172 0.328125,0 0.328125,0.433594 0,0.433594 -0.328125,0.433594 -1.183593,0 -3.550781,0 0,0.679687 0,2.71875 0.75,0 3.011719,0 0.328125,0.01172 0.339844,0.433594 0,0.421875 -0.339844,0.433593 z m 5.636719,1.628907 q -0.339844,0 -1.394532,0 -0.08203,0.527343 -0.351562,2.097656 -0.105469,0.46875 -0.574219,0.46875 -0.46875,0 -0.351562,-0.46875 0.08203,-0.515625 0.351562,-2.097656 -0.234375,0 -0.9375,0 -0.457031,0 -0.457031,-0.398438 0,-0.410156 0.457031,-0.410156 0.269531,0 1.054688,0 0.117187,-0.492188 0.457031,-1.980469 -0.257813,0 -1.042969,0 -0.46875,0 -0.46875,-0.410156 0,-0.398438 0.46875,-0.398438 0.292969,0 1.160156,0 0.09375,-0.503906 0.351563,-1.980468 0.117187,-0.46875 0.585937,-0.46875 0.46875,0 0.351563,0.46875 -0.09375,0.492187 -0.351563,1.980468 0.375,0 1.511719,0 0.08203,-0.503906 0.351563,-1.980468 0.117187,-0.46875 0.515625,-0.46875 0.410156,0 0.292968,0.46875 -0.08203,0.492187 -0.339843,1.980468 0.199218,0 0.808593,0 0.46875,0 0.46875,0.398438 0,0.410156 -0.46875,0.410156 -0.234375,0 -0.925781,0 -0.09375,0.492188 -0.351562,1.980469 0.175781,0 0.691406,0 0.46875,0 0.46875,0.410156 0,0.398438 -0.46875,0.398438 -0.222656,0 -0.925781,0 -0.117188,0.527343 -0.46875,2.097656 Q 31.550781,75.75 31.09375,75.75 q -0.46875,0 -0.351563,-0.46875 0.117188,-0.515625 0.457032,-2.097656 z M 29.921875,72.375 q 0.375,0 1.511719,0 0.09375,-0.492188 0.351562,-1.980469 -0.375,0 -1.511719,0 -0.08203,0.492188 -0.351562,1.980469 z m 7.042969,-1.511719 q 0.09375,0 0.351562,0 0.773438,-0.01172 1.183594,-0.421875 0.421875,-0.398437 0.421875,-1.066406 0,-1.5 -1.5,-1.5 -0.703125,0 -1.101563,0.398437 -0.398437,0.410157 -0.398437,1.078125 0,0.175782 -0.08203,0.339844 -0.08203,0.164063 -0.257813,0.210938 -0.105469,0.03516 -0.269531,0.01172 -0.175781,-0.03516 -0.292969,-0.140625 -0.07031,-0.07031 -0.105469,-0.175781 -0.03516,-0.105469 -0.03516,-0.246094 0,-1.019531 0.703125,-1.699218 0.703125,-0.667969 1.839844,-0.667969 1.207031,0 1.898437,0.632812 Q 40,68.261719 40,69.398437 q 0,0.550782 -0.351563,1.078125 -0.363281,0.515625 -0.984375,0.773438 0.703125,0.222656 1.089844,0.738281 0.375,0.515625 0.375,1.265625 0,1.148438 -0.75,1.816406 -0.75,0.679688 -1.945312,0.679688 -1.195313,0 -1.933594,-0.632813 -0.738281,-0.632812 -0.738281,-1.699218 0,-0.175782 0.08203,-0.339844 0.08203,-0.164063 0.246094,-0.210938 0.117187,-0.03516 0.28125,-0.01172 0.164062,0.03516 0.28125,0.140625 0.07031,0.07031 0.117187,0.175781 0.03516,0.105469 0.03516,0.246094 0,0.679687 0.445313,1.066406 0.445312,0.375 1.183594,0.375 0.785156,0 1.195312,-0.410156 0.421875,-0.410157 0.421875,-1.171875 0,-0.75 -0.433594,-1.113282 -0.433593,-0.363281 -1.300781,-0.375 -0.117187,0 -0.351562,0 -0.457032,0 -0.457032,-0.457031 0,-0.46875 0.457032,-0.46875 z"
     id="text1"
     style="line-height:0;font-family:'Roboto Round';-inkscape-font-specification:'Roboto Round';white-space:pre;inline-size:25.9258;fill:#ffffff;stroke-width:4.516;paint-order:stroke fill markers"
     transform="matrix(0,-3.1632572,3.4391159,0,-220.7197,139.79415)"
     aria-label="F#3" />
</svg>
