<?xml version="1.0" encoding="UTF-8" standalone="no"?>
<svg
   version="1.1"
   width="49.440659"
   height="140.09723"
   id="svg3"
   sodipodi:docname="f3_pressed.svg"
   inkscape:version="1.4.2 (ebf0e940d0, 2025-05-08)"
   inkscape:export-filename="d3_pressed.svg"
   inkscape:export-xdpi="110.68102"
   inkscape:export-ydpi="110.68102"
   xmlns:inkscape="http://www.inkscape.org/namespaces/inkscape"
   xmlns:sodipodi="http://sodipodi.sourceforge.net/DTD/sodipodi-0.dtd"
   xmlns:xlink="http://www.w3.org/1999/xlink"
   xmlns="http://www.w3.org/2000/svg"
   xmlns:svg="http://www.w3.org/2000/svg">
  <defs
     id="defs3">
    <linearGradient
       id="swatch5"
       inkscape:swatch="solid">
      <stop
         style="stop-color:#000000;stop-opacity:1;"
         offset="0"
         id="stop5" />
    </linearGradient>
    <linearGradient
       id="swatch4"
       inkscape:swatch="solid">
      <stop
         style="stop-color:#000000;stop-opacity:1;"
         offset="0"
         id="stop4" />
    </linearGradient>
    <linearGradient
       id="swatch3"
       inkscape:swatch="solid">
      <stop
         style="stop-color:#000000;stop-opacity:1;"
         offset="0"
         id="stop3" />
    </linearGradient>
    <linearGradient
       inkscape:collect="always"
       xlink:href="#swatch5"
       id="linearGradient5"
       x1="15.79076"
       y1="58.512028"
       x2="32.9897"
       y2="58.512028"
       gradientUnits="userSpaceOnUse"
       gradientTransform="matrix(2.6711331,0,0,4.5367795,-40.429229,-195.40753)" />
  </defs>
  <sodipodi:namedview
     id="namedview3"
     pagecolor="#ffffff"
     bordercolor="#000000"
     borderopacity="0.25"
     inkscape:showpageshadow="2"
     inkscape:pageopacity="0.0"
     inkscape:pagecheckerboard="0"
     inkscape:deskcolor="#d1d1d1"
     inkscape:zoom="4"
     inkscape:cx="5.75"
     inkscape:cy="83.5"
     inkscape:window-width="1317"
     inkscape:window-height="1029"
     inkscape:window-x="0"
     inkscape:window-y="0"
     inkscape:window-maximized="0"
     inkscape:current-layer="svg3">
    <inkscape:page
       x="0"
       y="0"
       width="49.440659"
       height="140.09723"
       id="page1"
       margin="0"
       bleed="0" />
  </sodipodi:namedview>
  <rect
     style="fill:#a53faa;fill-opacity:1;stroke:url(#linearGradient5);stroke-width:3.5;stroke-dasharray:none;paint-order:stroke fill markers"
     id="rect4"
     width="45.940659"
     height="136.59723"
     x="1.75"
     y="1.75"
     ry="6.2756801" />
  <path
     d="m 21.128698,87.406017 q -2.288933,0 -9.050089,0 0,2.641076 0,10.564307 -0.07043,1.655074 -1.584646,1.690289 -0.03522,0 -0.07043,0 -1.4790031,0 -1.5142174,-1.690289 0,-7.1133 0,-21.339901 0,-2.570648 1.7255034,-2.570648 1.725504,0 12.113739,-0.03521 0.986002,0 0.986002,1.302931 0,1.302931 -0.986002,1.302931 -3.55665,0 -10.66995,0 0,2.042433 0,8.169731 2.253719,0 9.050089,0 0.986002,0.03521 1.021217,1.302931 0,1.267717 -1.021217,1.302932 z m 12.04331,-2.077648 q 0.281715,0 1.056431,0 2.324148,-0.03521 3.55665,-1.267716 1.267717,-1.197289 1.267717,-3.204507 0,-4.507438 -4.507438,-4.507438 -2.112861,0 -3.310149,1.197289 -1.197288,1.232502 -1.197288,3.23972 0,0.528216 -0.246501,1.021217 -0.2465,0.493001 -0.774716,0.633858 -0.316929,0.105643 -0.80993,0.03521 -0.528215,-0.105644 -0.880359,-0.422573 -0.211286,-0.211286 -0.316929,-0.528215 -0.105643,-0.316929 -0.105643,-0.739502 0,-3.063649 2.112861,-5.106081 2.112862,-2.007219 5.528654,-2.007219 3.627079,0 5.704726,1.901576 2.042433,1.936789 2.042433,5.352582 0,1.655075 -1.056431,3.239721 -1.091645,1.549431 -2.958006,2.324147 2.112861,0.669073 3.274935,2.218505 1.12686,1.549431 1.12686,3.80315 0,3.451007 -2.253719,5.458226 -2.253719,2.042436 -5.845583,2.042436 -3.591865,0 -5.810369,-1.901579 -2.218505,-1.901575 -2.218505,-5.106082 0,-0.528215 0.246501,-1.021216 0.2465,-0.493001 0.739501,-0.633858 0.352144,-0.105644 0.845145,-0.03522 0.493001,0.105643 0.845144,0.422572 0.211286,0.211287 0.352144,0.528216 0.105643,0.316929 0.105643,0.739501 0,2.042433 1.338146,3.204507 1.338145,1.126859 3.55665,1.126859 2.359361,0 3.591864,-1.232502 1.267717,-1.232503 1.267717,-3.521436 0,-2.253719 -1.302931,-3.345364 -1.302932,-1.091645 -3.908794,-1.126859 -0.352144,0 -1.056431,0 -1.37336,0 -1.37336,-1.37336 0,-1.408575 1.37336,-1.408575 z"
     id="text1"
     style="font-size:36.0595px;line-height:0;font-family:'Roboto Round';-inkscape-font-specification:'Roboto Round';fill:#ffffff;stroke-width:13.5704;paint-order:stroke fill markers"
     transform="scale(0.95835285,1.043457)"
     aria-label="F3" />
</svg>
