<?xml version="1.0" encoding="UTF-8" standalone="no"?>
<svg
   version="1.1"
   width="49.440659"
   height="140.09723"
   id="svg3"
   sodipodi:docname="g#4_pressed.svg"
   inkscape:version="1.4.2 (ebf0e940d0, 2025-05-08)"
   inkscape:export-filename="c4_pressed.svg"
   inkscape:export-xdpi="110.68102"
   inkscape:export-ydpi="110.68102"
   xmlns:inkscape="http://www.inkscape.org/namespaces/inkscape"
   xmlns:sodipodi="http://sodipodi.sourceforge.net/DTD/sodipodi-0.dtd"
   xmlns:xlink="http://www.w3.org/1999/xlink"
   xmlns="http://www.w3.org/2000/svg"
   xmlns:svg="http://www.w3.org/2000/svg">
  <defs
     id="defs3">
    <linearGradient
       id="swatch5"
       inkscape:swatch="solid">
      <stop
         style="stop-color:#000000;stop-opacity:1;"
         offset="0"
         id="stop5" />
    </linearGradient>
    <linearGradient
       id="swatch4"
       inkscape:swatch="solid">
      <stop
         style="stop-color:#000000;stop-opacity:1;"
         offset="0"
         id="stop4" />
    </linearGradient>
    <linearGradient
       id="swatch3"
       inkscape:swatch="solid">
      <stop
         style="stop-color:#000000;stop-opacity:1;"
         offset="0"
         id="stop3" />
    </linearGradient>
    <linearGradient
       inkscape:collect="always"
       xlink:href="#swatch5"
       id="linearGradient5"
       x1="15.79076"
       y1="58.512028"
       x2="32.9897"
       y2="58.512028"
       gradientUnits="userSpaceOnUse"
       gradientTransform="matrix(2.6711331,0,0,4.5367795,-40.429229,-195.40753)" />
  </defs>
  <sodipodi:namedview
     id="namedview3"
     pagecolor="#ffffff"
     bordercolor="#000000"
     borderopacity="0.25"
     inkscape:showpageshadow="2"
     inkscape:pageopacity="0.0"
     inkscape:pagecheckerboard="0"
     inkscape:deskcolor="#d1d1d1"
     inkscape:zoom="4"
     inkscape:cx="-3.5"
     inkscape:cy="78.25"
     inkscape:window-width="1317"
     inkscape:window-height="1029"
     inkscape:window-x="0"
     inkscape:window-y="0"
     inkscape:window-maximized="0"
     inkscape:current-layer="svg3">
    <inkscape:page
       x="0"
       y="0"
       width="49.440659"
       height="140.09723"
       id="page2"
       margin="0"
       bleed="0" />
  </sodipodi:namedview>
  <rect
     style="fill:#a53faa;fill-opacity:1;stroke:url(#linearGradient5);stroke-width:3.5;stroke-dasharray:none;paint-order:stroke fill markers"
     id="rect4"
     width="45.940659"
     height="136.59723"
     x="1.75"
     y="1.75"
     ry="6.2756801" />
  <path
     d="m 39.309942,62.414183 q 0,3.1687 -1.652413,5.75465 -1.652415,2.58595 -4.634825,3.93355 -3.022709,1.31119 -7.012686,1.34761 -0.84636,0 -2.498775,0 -6.448449,0 -9.995096,-2.69521 -3.5466465,-2.73164 -3.5466465,-7.64858 0,-4.04282 2.3778685,-6.15529 2.377864,-2.11246 4.997547,-2.76806 2.055442,-0.47348 2.57938,0.76486 0.483633,1.27476 -1.329994,1.96678 -5.642392,2.0032 -5.521485,6.15528 0,3.42365 2.659987,5.1719 2.659983,1.78467 7.697835,1.78467 0.765752,0 2.29726,0 4.836337,0 7.617228,-2.11246 2.821198,-2.11247 2.821198,-5.4997 -0.08061,-4.04282 -2.377865,-5.39043 -2.337564,-1.38402 -5.763303,-1.05623 0,1.93036 0,5.82749 0,1.93036 -1.612112,1.93036 -1.652413,0 -1.652413,-1.93036 0,-5.82749 0,-7.28436 0,-1.45687 3.264525,-1.45687 1.128478,0.10926 2.418168,0.21853 1.329993,0.10926 2.659987,0.40064 2.418168,0.54632 4.312399,2.36741 1.894231,1.82109 1.894231,6.37382 z M 30.886658,36.773231 q 0,1.056232 0,4.334195 1.813624,0.254957 7.214201,1.092657 1.612113,0.32779 1.612113,1.78467 0,1.45687 -1.612113,1.09265 -1.773323,-0.25495 -7.214201,-1.09265 0,0.72843 0,2.91374 0,1.42045 -1.370297,1.42045 -1.410597,0 -1.410597,-1.42045 0,-0.8377 0,-3.27796 -1.692719,-0.36422 -6.811175,-1.42045 0,0.80128 0,3.24154 0,1.45687 -1.410597,1.45687 -1.370297,0 -1.370297,-1.45687 0,-0.91055 0,-3.60576 -1.73302,-0.29138 -6.811171,-1.092655 -1.612112,-0.364218 -1.612112,-1.821091 0,-1.456872 1.612112,-1.092654 1.692716,0.291375 6.811171,1.092654 0,-1.165498 0,-4.698413 -1.73302,-0.254952 -6.811171,-1.092654 -1.612112,-0.364219 -1.612112,-1.60256 0,-1.274764 1.612112,-0.910546 1.692716,0.254952 6.811171,1.056233 0,-0.619171 0,-2.513105 0,-1.456872 1.370297,-1.456872 1.410597,0 1.410597,1.456872 0,0.728436 0,2.877323 1.69272,0.291375 6.811175,1.092655 0,-0.546328 0,-2.148887 0,-1.456873 1.410597,-1.456873 1.370297,0 1.370297,1.456873 0,0.692014 0,2.877323 1.813624,0.364218 7.214201,1.456872 1.612113,0.364218 1.612113,1.784669 0,1.456872 -1.612113,1.092654 -1.773323,-0.364218 -7.214201,-1.42045 z m -2.780894,3.969977 q 0,-1.165498 0,-4.698414 -1.692719,-0.291374 -6.811175,-1.092654 0,1.165498 0,4.698414 1.69272,0.254952 6.811175,1.092654 z m 1.209082,-29.137449 q 0,-0.546327 0,-2.185308 Q 29.314846,8 30.886658,8 q 1.612112,0 1.612112,1.420451 0,0.546327 0,2.185308 1.28969,0 5.19906,0 2.015142,0 2.015142,1.456873 0,1.420451 -2.015142,1.420451 -1.28969,0 -5.19906,0 0,2.367417 0,9.433249 0,2.148886 -1.209085,2.513104 -0.282116,0.109265 -0.604542,0.109265 -1.088174,0 -2.579379,-0.837702 -3.989977,-2.513105 -16.000214,-10.125263 -1.934535,-1.456873 -1.934535,-2.440262 0,-0.218529 0.120922,-0.437061 0.604544,-1.092655 2.982409,-1.092655 4.03028,0 16.040514,0 z m 0,11.217918 q 0,-2.076043 0,-8.340594 -3.506343,0 -14.025375,0 0.161194,0.109264 0.564241,0.400639 3.385435,1.966778 13.461134,7.939955 z"
     id="text5"
     style="line-height:0;font-family:'Roboto Round';-inkscape-font-specification:'Roboto Round';white-space:pre;inline-size:27.9084;fill:#ffffff;stroke-width:11.4426;paint-order:stroke fill markers"
     aria-label="G#4" />
</svg>
